<?xml version="1.0" encoding="UTF-8"?>
<!DOCTYPE svg PUBLIC "-//W3C//DTD SVG 1.1//EN" "http://www.w3.org/Graphics/SVG/1.1/DTD/svg11.dtd">
<!-- Creator: CorelDRAW 2019 -->
<svg xmlns="http://www.w3.org/2000/svg" xml:space="preserve" width="11.984mm" height="8.7989mm" version="1.1" style="shape-rendering:geometricPrecision; text-rendering:geometricPrecision; image-rendering:optimizeQuality; fill-rule:evenodd; clip-rule:evenodd"
viewBox="0 0 270.27 198.43"
 xmlns:xlink="http://www.w3.org/1999/xlink">
 <defs>
  <style type="text/css">
   <![CDATA[
    .str0 {stroke:black;stroke-width:7.96;stroke-miterlimit:22.9256}
    .str1 {stroke:black;stroke-width:7.96;stroke-linecap:round;stroke-linejoin:round;stroke-miterlimit:22.9256}
    .fil0 {fill:none}
    .fil1 {fill:black;fill-rule:nonzero}
   ]]>
  </style>
 </defs>
 <g id="Capa_x0020_1">
  <metadata id="CorelCorpID_0Corel-Layer"/>
  <path class="fil0 str0" d="M59.86 90.34c2.45,2.03 4.93,3.81 7.93,5.5 -6.78,2.23 -8.58,3.09 -15.8,6.73 -28.66,15.77 -45.84,45.96 -47.87,78.28 -0.35,5.57 -0.59,11.53 6.13,13.31l157.81 0.31c6.16,0 10.58,-2.43 10.55,-9.15 -0.16,-34.09 -18.27,-65.2 -47.54,-82.43 -5.07,-2.98 -11.16,-5.37 -16.15,-7.16 3.15,-1.12 8.27,-5.63 10.69,-7.91 21.84,-20.56 18.94,-58 -6.72,-75.34 -17.74,-11.99 -39.4,-10.88 -56.21,0.81 -10.81,7.52 -18.81,21.1 -20.06,35.52 -1.34,15.38 5.31,31.66 17.23,41.54z"/>
  <g>
   <path class="fil1" d="M166.87 69.71l4.04 -6.56 -0.31 -0.17 0.89 0.44 0.88 0.45 0.87 0.46 0.87 0.46 0.86 0.46 0.85 0.47 0.85 0.47 0.84 0.48 0.83 0.48 0.83 0.49 0.82 0.49 0.81 0.49 0.81 0.5 0.81 0.51 0.79 0.51 0.79 0.51 0.78 0.52 0.78 0.52 0.77 0.53 0.77 0.53 0.76 0.53 0.75 0.54 0.75 0.54 0.75 0.55 0.74 0.55 0.73 0.55 0.73 0.55 0.73 0.56 0.71 0.56 0.71 0.56 0.71 0.57 0.71 0.57 -4.85 5.99 -0.67 -0.54 -0.68 -0.54 -0.68 -0.54 -0.69 -0.53 -0.69 -0.53 -0.69 -0.52 -0.7 -0.53 -0.7 -0.52 -0.7 -0.51 -0.71 -0.51 -0.72 -0.51 -0.72 -0.5 -0.73 -0.5 -0.73 -0.5 -0.73 -0.49 -0.74 -0.49 -0.75 -0.48 -0.75 -0.48 -0.75 -0.47 -0.76 -0.47 -0.77 -0.47 -0.77 -0.46 -0.78 -0.46 -0.78 -0.46 -0.78 -0.45 -0.79 -0.44 -0.81 -0.44 -0.81 -0.44 -0.81 -0.43 -0.82 -0.42 -0.83 -0.42 -0.83 -0.41 -0.31 -0.17zm0.31 0.17l-0.16 -0.08 -0.15 -0.09 0.31 0.17zm-0.06 -2.31l-5.67 5.23 -0.14 -0.16 -0.43 -0.55 -0.38 -0.56 -0.35 -0.58 -0.3 -0.62 -0.25 -0.64 -0.19 -0.65 -0.13 -0.7 -0.05 -0.73 0.04 -0.74 0.14 -0.75 0.24 -0.72 0.33 -0.68 0.41 -0.62 0.46 -0.54 0.52 -0.47 0.55 -0.39 0.54 -0.31 0.57 -0.26 0.59 -0.2 0.57 -0.14 0.57 -0.09 0.57 -0.05 0.58 -0.01 0.57 0.02 0.57 0.06 0.56 0.1 0.57 0.13 0.56 0.17 0.55 0.2 0.55 0.23 0.55 0.28 0.53 0.31 -4.04 6.56 -0.15 -0.09 -0.13 -0.07 -0.14 -0.06 -0.13 -0.05 -0.12 -0.04 -0.11 -0.03 -0.11 -0.02 -0.09 -0.01 -0.07 -0 -0.03 0 -0.03 0 -0.01 0 0.03 -0.01 0.08 -0.03 0.1 -0.04 0.1 -0.06 0.15 -0.11 0.16 -0.15 0.16 -0.18 0.15 -0.23 0.12 -0.25 0.09 -0.27 0.05 -0.26 0.01 -0.21 -0.01 -0.18 -0.02 -0.12 -0.01 -0.04 0 0 0.02 0.05 0.07 0.11 0.11 0.16 0.15 0.19 -0.14 -0.16zm-5.67 5.23l-0.07 -0.07 -0.07 -0.08 0.14 0.16zm37.36 38.24l-6.63 3.92 0.02 0.03 -0.85 -1.4 -0.85 -1.39 -0.85 -1.38 -0.85 -1.38 -0.86 -1.37 -0.86 -1.36 -0.86 -1.36 -0.87 -1.35 -0.88 -1.35 -0.88 -1.34 -0.89 -1.33 -0.9 -1.33 -0.91 -1.33 -0.91 -1.32 -0.92 -1.31 -0.93 -1.31 -0.94 -1.31 -0.95 -1.31 -0.96 -1.3 -0.98 -1.3 -0.99 -1.29 -1 -1.29 -1.01 -1.29 -1.03 -1.29 -1.04 -1.29 -1.06 -1.28 -1.08 -1.28 -1.09 -1.28 -1.11 -1.27 -1.13 -1.28 -1.15 -1.27 -1.16 -1.27 5.67 -5.23 1.21 1.32 1.19 1.32 1.17 1.32 1.15 1.32 1.13 1.33 1.12 1.33 1.1 1.33 1.08 1.33 1.07 1.33 1.05 1.34 1.04 1.34 1.02 1.34 1.01 1.34 1 1.35 0.98 1.35 0.97 1.35 0.96 1.35 0.95 1.36 0.94 1.36 0.93 1.36 0.92 1.37 0.91 1.37 0.9 1.37 0.9 1.38 0.89 1.38 0.89 1.39 0.88 1.39 0.88 1.39 0.87 1.4 0.87 1.41 0.86 1.41 0.86 1.42 0.02 0.03zm-0.02 -0.03l0.02 0.03 -0.05 -0.08 0.03 0.05zm-2.08 0.4l6.58 4.02 0 -0 -0.23 0.36 -0.23 0.35 -0.24 0.33 -0.26 0.33 -0.28 0.32 -0.3 0.3 -0.33 0.3 -0.36 0.29 -0.4 0.28 -0.45 0.25 -0.51 0.22 -0.53 0.17 -0.57 0.12 -0.6 0.05 -0.58 -0.02 -0.57 -0.08 -0.55 -0.14 -0.49 -0.19 -0.44 -0.21 -0.42 -0.25 -0.36 -0.25 -0.3 -0.25 -0.3 -0.28 -0.26 -0.26 -0.23 -0.25 -0.24 -0.28 -0.21 -0.27 -0.2 -0.28 -0.18 -0.26 -0.18 -0.27 -0.18 -0.3 -0.17 -0.28 6.63 -3.92 0.11 0.18 0.09 0.14 0.09 0.14 0.09 0.13 0.07 0.09 0.06 0.08 0.03 0.04 0.04 0.04 0.01 0.01 -0.04 -0.03 -0.03 -0.03 -0.09 -0.06 -0.15 -0.09 -0.17 -0.08 -0.22 -0.08 -0.28 -0.07 -0.3 -0.04 -0.3 -0.01 -0.32 0.03 -0.29 0.06 -0.25 0.08 -0.22 0.1 -0.16 0.09 -0.11 0.08 -0.07 0.06 -0.03 0.02 0.01 -0.01 0.03 -0.03 0.05 -0.07 0.07 -0.1 0.09 -0.13 0.1 -0.16 0 -0zm6.69 -14.61l6.98 3.27 0 0 -0.2 0.43 -0.2 0.44 -0.2 0.44 -0.2 0.45 -0.2 0.45 -0.2 0.46 -0.2 0.47 -0.2 0.48 -0.2 0.48 -0.2 0.47 -0.2 0.48 -0.21 0.49 -0.21 0.5 -0.21 0.49 -0.21 0.49 -0.21 0.49 -0.21 0.5 -0.21 0.5 -0.22 0.5 -0.22 0.49 -0.23 0.51 -0.23 0.5 -0.23 0.49 -0.24 0.5 -0.24 0.48 -0.25 0.5 -0.25 0.49 -0.25 0.48 -0.27 0.49 -0.27 0.48 -0.28 0.48 -0.28 0.47 -6.58 -4.02 0.22 -0.37 0.22 -0.38 0.22 -0.39 0.21 -0.39 0.22 -0.41 0.21 -0.41 0.21 -0.42 0.21 -0.44 0.21 -0.43 0.21 -0.44 0.21 -0.45 0.2 -0.45 0.21 -0.46 0.2 -0.46 0.2 -0.47 0.2 -0.47 0.2 -0.48 0.21 -0.48 0.2 -0.48 0.2 -0.48 0.2 -0.48 0.2 -0.49 0.21 -0.5 0.21 -0.48 0.2 -0.48 0.21 -0.48 0.21 -0.49 0.21 -0.49 0.21 -0.48 0.22 -0.49 0.22 -0.48 0.22 -0.48 0 0zm58.45 -87.27l5.93 4.93 -0.03 0.04 -2.48 2.92 -2.42 2.88 -2.36 2.84 -2.3 2.8 -2.24 2.76 -2.19 2.73 -2.14 2.7 -2.09 2.67 -2.04 2.65 -1.99 2.63 -1.95 2.61 -1.9 2.59 -1.86 2.58 -1.82 2.57 -1.78 2.56 -1.74 2.55 -1.7 2.56 -1.67 2.55 -1.64 2.56 -1.61 2.56 -1.58 2.57 -1.55 2.59 -1.52 2.6 -1.5 2.62 -1.47 2.64 -1.45 2.66 -1.43 2.69 -1.41 2.72 -1.4 2.75 -1.38 2.79 -1.37 2.83 -1.36 2.87 -6.98 -3.27 1.39 -2.93 1.4 -2.89 1.42 -2.85 1.43 -2.82 1.45 -2.78 1.47 -2.76 1.49 -2.73 1.51 -2.71 1.54 -2.69 1.56 -2.67 1.59 -2.65 1.62 -2.64 1.65 -2.63 1.68 -2.62 1.71 -2.61 1.75 -2.61 1.79 -2.62 1.82 -2.61 1.86 -2.62 1.9 -2.63 1.94 -2.64 1.98 -2.66 2.03 -2.67 2.08 -2.69 2.12 -2.72 2.17 -2.74 2.22 -2.77 2.28 -2.8 2.33 -2.83 2.38 -2.87 2.44 -2.9 2.5 -2.95 -0.03 0.04zm5.93 4.93l-0.03 0.04 0.07 -0.08 -0.03 0.04zm-5.8 -4.16l-4.97 -5.9 0.08 -0.07 0.62 -0.46 0.62 -0.41 0.65 -0.37 0.66 -0.32 0.67 -0.27 0.68 -0.22 0.69 -0.17 0.69 -0.12 0.7 -0.06 0.7 0 0.7 0.06 0.71 0.13 0.68 0.2 0.66 0.26 0.67 0.36 0.62 0.43 0.57 0.5 0.51 0.58 0.44 0.64 0.37 0.7 0.27 0.75 0.18 0.78 0.08 0.78 -0 0.76 -0.09 0.77 -0.16 0.74 -0.22 0.72 -0.29 0.72 -0.35 0.68 -0.4 0.67 -0.46 0.66 -0.5 0.64 -5.93 -4.93 0.23 -0.29 0.17 -0.25 0.13 -0.22 0.09 -0.18 0.05 -0.12 0.02 -0.08 0.01 -0.03 -0 0.03 0 0.06 0.01 0.12 0.03 0.15 0.06 0.17 0.09 0.16 0.1 0.15 0.12 0.13 0.12 0.1 0.12 0.09 0.12 0.06 0.07 0.03 0.05 0.01 0.03 0.01 -0.01 0 -0.04 0 -0.07 0 -0.1 0.02 -0.13 0.03 -0.15 0.05 -0.17 0.07 -0.19 0.09 -0.21 0.12 -0.24 0.16 -0.25 0.18 0.08 -0.07zm-4.97 -5.9l0.02 -0.01 0.07 -0.05 -0.08 0.07zm-66 80.97l4.85 -5.99 -5.83 1.2 1.58 -2.93 1.63 -2.88 1.66 -2.82 1.7 -2.78 1.75 -2.73 1.78 -2.68 1.82 -2.65 1.86 -2.6 1.9 -2.56 1.93 -2.52 1.96 -2.49 1.99 -2.45 2.03 -2.42 2.05 -2.38 2.09 -2.35 2.12 -2.33 2.14 -2.3 2.17 -2.27 2.2 -2.25 2.22 -2.23 2.25 -2.21 2.28 -2.19 2.3 -2.17 2.32 -2.15 2.34 -2.14 2.36 -2.12 2.38 -2.12 2.4 -2.1 2.42 -2.1 2.43 -2.09 2.45 -2.09 2.46 -2.08 4.97 5.9 -2.45 2.07 -2.43 2.07 -2.41 2.07 -2.39 2.07 -2.36 2.07 -2.34 2.08 -2.32 2.09 -2.3 2.1 -2.27 2.11 -2.25 2.12 -2.22 2.13 -2.19 2.15 -2.17 2.17 -2.14 2.19 -2.11 2.21 -2.08 2.23 -2.05 2.26 -2.02 2.28 -1.99 2.3 -1.96 2.33 -1.92 2.36 -1.89 2.39 -1.85 2.43 -1.82 2.46 -1.78 2.49 -1.75 2.54 -1.71 2.58 -1.67 2.62 -1.63 2.66 -1.6 2.71 -1.55 2.75 -1.52 2.8 -5.83 1.2zm5.83 -1.2l-2.19 4.14 -3.64 -2.95 5.83 -1.2z"/>
  </g>
  <line class="fil0 str1" x1="49.55" y1="194.22" x2="56.27" y2= "149.18" />
  <line class="fil0 str1" x1="133.05" y1="194.22" x2="126.33" y2= "149.18" />
 </g>
</svg>

