<?xml version="1.0" encoding="UTF-8"?>
<!DOCTYPE svg PUBLIC "-//W3C//DTD SVG 1.1//EN" "http://www.w3.org/Graphics/SVG/1.1/DTD/svg11.dtd">
<!-- Creator: CorelDRAW 2019 -->
<svg xmlns="http://www.w3.org/2000/svg" xml:space="preserve" width="9.024mm" height="12.365mm" version="1.1" style="shape-rendering:geometricPrecision; text-rendering:geometricPrecision; image-rendering:optimizeQuality; fill-rule:evenodd; clip-rule:evenodd"
viewBox="0 0 111.15 152.3"
 xmlns:xlink="http://www.w3.org/1999/xlink">
 <defs>
  <style type="text/css">
   <![CDATA[
    .fil0 {fill:black}
    .fil1 {fill:white}
   ]]>
  </style>
 </defs>
 <g id="Capa_x0020_1">
  <metadata id="CorelCorpID_0Corel-Layer"/>
  <path class="fil0" d="M106.78 54.11l0 -52.37c0,-0.7 -1.04,-1.75 -1.75,-1.75l-98.92 0c-0.7,0 -1.75,1.04 -1.75,1.75l0 52.37c0,0.7 1.04,1.75 1.75,1.75l98.92 0c0.7,0 1.75,-1.05 1.75,-1.75zm-4.65 -49.46l-9.08 0c0.84,4.78 4.3,8.24 9.08,9.08l0 -9.08zm0 37.47c-4.79,0.85 -8.23,4.29 -9.08,9.08l9.08 -0 0 -9.08zm-84.02 -37.47l-9.08 -0 0 9.08c4.79,-0.85 8.23,-4.29 9.08,-9.08zm-9.08 37.47l-0 9.08 9.08 0c-0.84,-4.78 -4.3,-8.24 -9.08,-9.08zm31.17 -37.44l-16.91 -0.04c-1.1,0.27 -0.41,1.76 -2.08,4.91 -1.94,3.64 -5.51,6.88 -9.53,8.21 -0.47,0.15 -0.84,0.22 -1.36,0.37 -0.97,0.28 -1.28,-0.06 -1.28,1.35l0 17.46c0.27,1.11 1.76,0.41 4.91,2.08 1.8,0.96 2.97,1.95 4.14,3.13 2.7,2.71 3.45,4.34 4.44,7.77 0.39,1.35 -0.06,0.84 0.77,1.28l16.91 -0c-3.65,-3.49 -4.73,-3 -8.57,-9.21 -2.32,-3.76 -3.98,-8.71 -3.98,-14.06 0,-7.91 3.16,-13.75 7.71,-19.06 1.37,-1.6 3.17,-2.61 4.84,-4.17zm61.93 32.26l0 -18.04c-0.21,-0.85 -0.41,-0.45 -2.42,-1.07 -4.1,-1.26 -7.64,-4.48 -9.65,-8.09 -0.87,-1.56 -0.97,-2.27 -1.41,-3.82 -0.39,-1.35 0.06,-0.85 -0.77,-1.28l-16.91 0c3.67,3.48 4.8,3.1 8.57,9.21 6.86,11.14 4.55,23.46 -3.73,33.12 -1.37,1.6 -3.16,2.62 -4.84,4.17l16.91 0.04c0.82,-0.43 0.24,0.36 0.71,-1.05 1.15,-3.43 1.13,-4.63 4.5,-8 1.17,-1.17 2.24,-2.07 3.95,-3.02 1.56,-0.87 2.27,-0.97 3.82,-1.41 1.35,-0.39 0.85,0.06 1.28,-0.77z"/>
  <path class="fil1" d="M57.97 51.08c13.76,-1.66 22.15,-13.1 20.75,-25.6 -1.37,-12.2 -11.67,-22.28 -25.63,-20.7 -22.56,2.56 -26.7,29.61 -12.73,40.97 4.08,3.31 10.41,6.19 17.61,5.33z"/>
  <path class="fil0" d="M57.9 43.88c8.83,-2.07 9.48,-15.4 0,-17.89l0.01 -9.12c1.75,0.81 1.34,2.3 3.06,2.77 1.81,0.5 3.1,-0.74 2.94,-2.43 -0.31,-3.37 -5.75,-4.62 -6,-5.58 -0.01,-1.87 -0.36,-3.46 -2.33,-3.46 -2.12,0 -2.33,1.83 -2.32,3.81 -8.86,2.07 -9.44,15.42 0,17.89l-0 9.12c-1.77,-0.79 -1.34,-2.32 -3.05,-2.79 -2.28,-0.62 -5.11,2.14 -0.56,5.81 0.79,0.64 3.1,1.28 3.61,2.22 -0,1.87 0.36,3.46 2.33,3.46 2.14,0.01 2.32,-1.82 2.32,-3.8zm-4.67 -26.91c-3.26,1.71 -2.96,6.69 0,8.06l-0 -8.06zm4.68 13.86l-0.02 1.17 0 2.04 -0 3.78 0.07 1.07c3.21,-1.67 2.9,-6.7 -0.06,-8.06z"/>
  <path class="fil0" d="M16.84 88.67c2.43,1.61 11.71,4.3 15.2,4.57 5.6,0.43 12.17,-2.13 16.31,-4.33 15.24,-8.11 25.42,8.91 44.24,1.91 1.23,-0.46 1.94,-0.67 2.98,-1.46 -9.63,-6.84 -23.6,-12.28 -40.19,-12.28 -15.19,0 -28.89,5.11 -38.55,11.61zm-14.34 20.93c-0.06,0.74 -0.13,1.4 -0.13,2.2 0,18.6 23.74,33.68 53.03,33.68 29.29,0 53.03,-15.08 53.03,-33.68 0,-0.5 -0.02,-1.01 -0.05,-1.51 -4.52,0.54 -18.06,4.42 -21.49,6.48 0.51,2.12 1.55,8.25 -6.22,8.12 0.04,3.93 -4.19,6.22 -7.52,5.02 -0.36,4.04 -4.21,5.1 -7.46,4.35 -1.82,2.94 -6.95,2.94 -9.65,0.55 -0.95,1.47 -7.17,4.51 -10.35,-1.78 -4.34,1.16 -7.22,-1.11 -7.31,-3.58 -3.22,0.96 -6.71,-0.8 -7.36,-4.87 -5.02,-0.08 -6.78,-2.67 -5.98,-7.61 -5.79,-3.34 -15.11,-6.31 -22.53,-7.36zm53.08 -34.43c30.69,0 55.57,17.26 55.57,38.56 0,21.3 -24.88,38.56 -55.57,38.56 -30.69,0 -55.57,-17.26 -55.57,-38.56 0,-21.3 24.88,-38.56 55.57,-38.56z"/>
  <path class="fil1" d="M32.52 121.56c0.03,3.98 2.46,7.32 7.5,5.08 -1,4.7 3.87,5.96 7.11,3.07 0.65,7.14 8.35,5.29 8.21,0.22 -0.11,-4.13 -3.46,-4.27 -6.72,-3.68 0.68,-4.7 -1.61,-7.14 -6.3,-5.35 -1.45,-3.47 -3.84,-5.5 -8.33,-2.09 -2.34,-4.13 -5.43,-3.28 -6.64,-1.41 -1.17,2.69 0.29,6.37 5.15,4.16z"/>
  <path class="fil1" d="M2.79 106.99c6.04,1.67 13.69,3.19 19.37,5.96 2.95,1.44 4.11,2.04 4.61,2.2 2.93,-1.73 5.08,-1.72 7.63,0.64 3.69,-1.73 7.1,-1.24 8.99,2.25 4.09,-0.54 6.52,0.59 7.79,5.78 6.55,0.08 6.67,5.29 6.13,8.49 1.44,2.5 7.46,2.31 6.06,-0.59l-3.95 -4.34c-0.23,-0.73 0.45,-1.39 1.17,-1.15l4.2 4.56c2.16,1.85 3.95,2.39 5.66,0.22 0.43,-0.96 0.4,-1.8 -0.32,-2.93l-5 -5.3c-0.3,-0.74 0.71,-1.56 1.32,-1.39l4.73 4.86c2.55,2.47 4.96,2.34 6.36,-0.03 0.5,-0.85 0.84,-1.53 0.49,-2.38 -0.28,-0.69 -0.61,-1.1 -1.12,-1.61l-6.24 -6.09c-0.42,-0.91 0.65,-1.74 1.33,-1.4l6.75 6.4c2.29,1.7 4.42,2.22 5.93,-0.33 1.9,-3.22 -5.04,-7.02 -9.04,-10.86l-11.5 -9.7c-6.28,-4.99 -8.66,-3.29 -14.07,0.95 -3.16,2.47 -9.46,6.32 -13.41,2 -1,-1.09 -1.18,-1.29 -0.6,-2.64 1.04,-2.44 3.32,-3.9 4.93,-6.31 -6.99,1.04 -7.01,2.14 -14.63,0.18l-12.52 -3.6c-4.86,4.53 -8.9,8.57 -11.04,16.15z"/>
  <path class="fil1" d="M39.26 102.38c10.99,3.36 11.78,-15.61 26.9,-3.49 6.35,5.4 12.89,10.48 19.19,15.73 3,-1.17 9.01,-4.35 22.69,-6.91 -1.22,-7.38 -6.16,-13.38 -10.31,-16.43 -18.38,6.63 -18.47,3.47 -32.37,-0.93 -9.27,-2.94 -16.59,-0.87 -22.76,5.86 -0.92,1 -1.41,1.64 -2.34,2.68 -0.31,0.43 -0.63,0.86 -0.94,1.29 -0.58,0.8 -1.44,1.78 -0.05,2.2z"/>
 </g>
</svg>

