<?xml version="1.0" encoding="UTF-8"?>
<!DOCTYPE svg PUBLIC "-//W3C//DTD SVG 1.1//EN" "http://www.w3.org/Graphics/SVG/1.1/DTD/svg11.dtd">
<!-- Creator: CorelDRAW 2019 -->
<svg xmlns="http://www.w3.org/2000/svg" xml:space="preserve" width="14.6895mm" height="7.0829mm" version="1.1" style="shape-rendering:geometricPrecision; text-rendering:geometricPrecision; image-rendering:optimizeQuality; fill-rule:evenodd; clip-rule:evenodd"
viewBox="0 0 1356.35 654"
 xmlns:xlink="http://www.w3.org/1999/xlink">
 <defs>
  <style type="text/css">
   <![CDATA[
    .fil1 {fill:black}
    .fil0 {fill:black;fill-rule:nonzero}
   ]]>
  </style>
 </defs>
 <g id="Capa_x0020_1">
  <metadata id="CorelCorpID_0Corel-Layer"/>
  <g>
   <path class="fil0" d="M925.43 327.27l-141.07 -99.48 19.74 -21.68 141.07 99.48 1.2 0.94 -20.94 20.74zm19.74 -21.68l0.61 0.43 0.59 0.51 -1.2 -0.94zm-13.79 34.93l0 -27.77 0 0 0.41 0 0.25 0 0.32 -0.01 0.36 0 0.23 -0.01 0.1 -0.01 0.28 -0.02 0.11 -0.01 -0.05 0 0.06 -0.01 -0.16 0.04 -0.36 0.08 -0.57 0.18 -0.65 0.25 -0.76 0.35 -1.14 0.66 -1.28 0.97 -1.21 1.21 -1.2 1.69 -0.88 1.86 -0.5 2.01 -0.1 1.84 0.17 1.39 0.33 1.21 0.34 0.83 0.24 0.44 0.17 0.25 0 0 -0.16 -0.18 -0.35 -0.36 -0.52 -0.5 -0.65 -0.58 22.14 -19.8 1.42 1.26 1.29 1.26 1.22 1.26 1.15 1.34 1.09 1.4 1.03 1.56 0.9 1.66 0.82 1.96 0.61 2.24 0.28 2.34 -0.14 2.71 -0.7 2.79 -1.21 2.58 -1.66 2.32 -1.78 1.78 -1.97 1.49 -1.91 1.11 -1.61 0.74 -1.57 0.6 -1.57 0.47 -1.38 0.32 -1.23 0.24 -1.02 0.16 -1.15 0.15 -1 0.08 -0.83 0.07 -0.97 0.05 -0.82 0.03 -0.64 0.02 -0.64 0.01 -0.62 0 -0.41 0 0 0zm-280.05 -27.84l280.05 0.06 0 27.77 -280.05 -0.06 -0.07 -27.77 0.07 0zm-0.07 0l0 0 0.07 0 -0.07 0zm-33.94 2.06l31.02 -5.13 -0.43 -1.52 0.42 1.19 0.37 1.13 0.31 0.99 0.3 0.94 0.27 0.87 0.22 0.7 0.23 0.69 0.19 0.57 0.12 0.35 0.1 0.24 0.08 0.19 0 0 -0.12 -0.2 -0.18 -0.28 -0.3 -0.39 -0.38 -0.42 -0.5 -0.47 -0.59 -0.48 -0.66 -0.43 -0.66 -0.36 -0.51 -0.23 -0.42 -0.15 -0.27 -0.08 -0.01 0 0.03 0.01 0.22 0.03 0.44 0.05 0.6 0.05 0.82 0.05 0.95 0.04 1.04 0.02 1.21 0 0.15 27.77 -1.71 0 -1.69 -0.04 -1.58 -0.06 -1.52 -0.08 -1.58 -0.12 -1.55 -0.18 -1.64 -0.23 -1.67 -0.32 -1.58 -0.37 -1.71 -0.51 -1.73 -0.63 -1.71 -0.77 -1.75 -0.95 -1.65 -1.1 -1.5 -1.2 -1.33 -1.26 -1.14 -1.27 -1 -1.31 -0.83 -1.27 -0.71 -1.26 -0.55 -1.14 -0.45 -1.02 -0.42 -1.05 -0.38 -1.03 -0.29 -0.87 -0.29 -0.86 -0.3 -0.92 -0.27 -0.85 -0.27 -0.85 -0.3 -0.91 -0.28 -0.85 -0.3 -0.9 -0.43 -1.52zm0.43 1.52l-0.28 -0.79 -0.16 -0.73 0.43 1.52zm-22.67 -105.97l30.14 -8.27 0.44 1.57 0.71 3.31 0.71 3.32 0.7 3.31 0.71 3.31 0.71 3.31 0.71 3.33 0.7 3.31 0.7 3.3 0.72 3.31 0.71 3.31 0.71 3.33 0.7 3.31 0.7 3.3 0.71 3.31 0.72 3.33 0.7 3.31 0.71 3.3 0.7 3.31 0.72 3.31 0.7 3.32 0.71 3.3 0.71 3.31 0.71 3.33 0.7 3.31 0.7 3.3 0.72 3.33 0.7 3.31 0.71 3.3 0.7 3.31 0.72 3.31 0.7 3.32 0.71 3.31 -31.02 5.13 -0.71 -3.32 -0.7 -3.31 -0.7 -3.3 -0.72 -3.31 -0.71 -3.33 -0.7 -3.31 -0.7 -3.3 -0.72 -3.31 -0.7 -3.32 -0.71 -3.3 -0.71 -3.31 -0.71 -3.33 -0.7 -3.31 -0.7 -3.3 -0.72 -3.31 -0.71 -3.33 -0.7 -3.31 -0.7 -3.3 -0.71 -3.31 -0.72 -3.33 -0.7 -3.31 -0.71 -3.3 -0.71 -3.31 -0.7 -3.31 -0.72 -3.31 -0.7 -3.32 -0.71 -3.3 -0.71 -3.31 -0.71 -3.32 -0.7 -3.31 -0.71 -3.31 -0.71 -3.32 0.44 1.57zm30.14 -8.27l0.27 0.77 0.18 0.8 -0.44 -1.57zm-7.71 -22.24l0.28 27.77 -2.87 -0.21 0.45 0.06 0.55 0.04 0.57 -0.01 0.73 -0.06 0.83 -0.13 0.9 -0.22 0.82 -0.28 0.9 -0.4 0.83 -0.44 0.58 -0.39 0.71 -0.56 0.56 -0.53 0.42 -0.47 0.36 -0.46 0.25 -0.38 0.25 -0.45 0.19 -0.42 0.06 -0.15 0.06 -0.21 0.06 -0.28 0.03 -0.12 0.01 -0.07 0 -0.03 0 -0.01 0 0.03 0.01 0.05 0.01 0.08 0.01 0.09 0 0.01 0.03 0.11 0.06 0.2 0.04 0.09 -30.14 8.27 -0.37 -1.14 -0.3 -1.03 -0.29 -1.13 -0.24 -1.23 -0.18 -1.14 -0.12 -1.14 -0.06 -1.15 -0.02 -1.15 0.04 -1.17 0.09 -1.17 0.16 -1.2 0.23 -1.21 0.32 -1.33 0.4 -1.23 0.43 -1.13 0.62 -1.37 0.75 -1.34 0.8 -1.23 0.97 -1.26 1.08 -1.21 1.28 -1.21 1.49 -1.17 1.43 -0.94 1.72 -0.94 1.87 -0.8 1.84 -0.63 1.98 -0.48 1.96 -0.31 1.91 -0.16 1.83 -0.03 1.87 0.11 1.82 0.22 -2.87 -0.21zm0.28 27.77l-1.43 0.01 -1.44 -0.22 2.87 0.21zm118.8 -0.94l-118.8 0.94 -0.28 -27.77 118.8 -0.94 0.66 0.01 -0.38 27.76zm-0.28 -27.77l0.26 0 0.4 0.01 -0.66 -0.01zm67.8 27.28l-19.74 21.68 -0.97 -0.75 -1.82 -1.52 -1.74 -1.46 -1.67 -1.42 -1.53 -1.31 -1.43 -1.22 -1.42 -1.19 -1.32 -1.1 -1.23 -1 -1.22 -0.96 -1.1 -0.85 -1.08 -0.78 -1.05 -0.73 -0.97 -0.64 -0.95 -0.58 -0.91 -0.54 -0.95 -0.49 -0.99 -0.48 -0.94 -0.42 -0.99 -0.39 -1.1 -0.38 -1.16 -0.37 -1.26 -0.34 -1.4 -0.34 -1.49 -0.31 -1.63 -0.3 -1.78 -0.27 -1.94 -0.24 -2.11 -0.22 -2.31 -0.19 -2.47 -0.17 -2.66 -0.14 -2.84 -0.1 1.03 -27.76 3.34 0.12 3.21 0.16 3.07 0.2 2.95 0.25 2.85 0.3 2.77 0.35 2.69 0.42 2.61 0.46 2.54 0.54 2.42 0.58 2.38 0.66 2.31 0.72 2.23 0.78 2.21 0.87 2.12 0.93 1.99 0.96 1.95 1.02 1.89 1.07 1.82 1.12 1.75 1.15 1.64 1.15 1.63 1.19 1.6 1.22 1.51 1.2 1.56 1.26 1.51 1.26 1.5 1.25 1.58 1.33 1.57 1.35 1.56 1.33 1.64 1.39 1.71 1.43 -0.97 -0.75zm-19.74 21.68l-0.46 -0.32 -0.51 -0.42 0.97 0.75z"/>
  </g>
  <g>
   <path class="fil0" d="M1279.64 370.73l11.49 -25.87 0.01 0 2.64 0.92 2.59 0.92 2.52 0.94 2.47 0.93 2.38 0.95 2.32 0.94 2.25 0.95 2.22 0.97 2.17 1 2.1 0.99 2.07 1.03 1.98 1.02 1.93 1.05 1.9 1.08 1.87 1.12 1.78 1.13 1.73 1.15 1.72 1.2 1.63 1.22 1.56 1.23 1.53 1.28 1.49 1.31 1.43 1.36 1.39 1.41 1.31 1.43 1.24 1.43 1.17 1.48 1.13 1.5 1.1 1.58 1 1.58 0.93 1.59 0.89 1.63 -28.72 11.54 -0.42 -0.79 -0.47 -0.79 -0.48 -0.75 -0.47 -0.69 -0.55 -0.74 -0.58 -0.72 -0.63 -0.73 -0.63 -0.69 -0.67 -0.67 -0.73 -0.69 -0.78 -0.7 -0.83 -0.69 -0.93 -0.73 -0.96 -0.72 -1 -0.7 -1.1 -0.73 -1.17 -0.74 -1.2 -0.73 -1.29 -0.73 -1.39 -0.76 -1.48 -0.77 -1.51 -0.76 -1.62 -0.77 -1.69 -0.78 -1.77 -0.77 -1.88 -0.8 -1.95 -0.79 -2.03 -0.8 -2.1 -0.8 -2.21 -0.81 -2.27 -0.81 -2.38 -0.83 0.01 0zm-238.24 -51.59l18.82 -22.29 -6.46 -2.5 8.3 1.39 8.14 1.33 8.04 1.29 7.89 1.27 7.79 1.24 7.7 1.23 7.57 1.21 7.52 1.19 7.42 1.21 7.36 1.19 7.29 1.21 7.23 1.22 7.19 1.24 7.16 1.26 7.1 1.29 7.1 1.32 7.1 1.37 7.07 1.42 7.06 1.46 7.09 1.51 7.1 1.6 7.11 1.64 7.16 1.74 7.17 1.79 7.25 1.88 7.29 1.99 7.31 2.07 7.41 2.16 7.49 2.28 7.55 2.39 7.65 2.49 7.75 2.62 -11.49 25.87 -7.41 -2.51 -7.31 -2.38 -7.22 -2.28 -7.14 -2.17 -7.06 -2.07 -7.02 -1.98 -6.94 -1.89 -6.9 -1.79 -6.89 -1.74 -6.84 -1.64 -6.83 -1.59 -6.81 -1.52 -6.81 -1.46 -6.84 -1.42 -6.83 -1.37 -6.86 -1.33 -6.9 -1.28 -6.95 -1.26 -6.99 -1.25 -7.05 -1.2 -7.14 -1.2 -7.19 -1.19 -7.29 -1.19 -7.37 -1.19 -7.46 -1.19 -7.59 -1.21 -7.68 -1.23 -7.81 -1.24 -7.95 -1.27 -8.08 -1.31 -8.24 -1.35 -8.37 -1.39 -6.46 -2.5zm6.46 2.5l-3.55 -0.59 -2.92 -1.91 6.46 2.5zm-212.52 -171.82l224.87 147.02 -18.82 22.29 -224.87 -147.02 17.68 -22.97 1.14 0.68zm-1.14 -0.68l0.53 0.29 0.61 0.4 -1.14 -0.68zm-99.04 -8.73l0 -27.77 0 0 4.9 0.07 4.75 0.2 4.64 0.33 4.48 0.48 4.35 0.59 4.21 0.71 4.06 0.82 3.92 0.91 3.83 1.02 3.67 1.11 3.55 1.18 3.44 1.27 3.32 1.33 3.19 1.39 3.08 1.43 2.96 1.46 2.85 1.5 2.78 1.52 2.68 1.53 2.58 1.54 2.47 1.51 2.41 1.51 2.37 1.52 2.27 1.48 2.21 1.43 2.12 1.39 2.1 1.35 2.06 1.31 2.02 1.26 1.92 1.16 1.92 1.11 1.9 1.06 -16.55 23.66 -2.47 -1.38 -2.42 -1.4 -2.38 -1.44 -2.3 -1.44 -2.24 -1.42 -2.24 -1.44 -2.22 -1.44 -2.19 -1.43 -2.16 -1.4 -2.13 -1.36 -2.17 -1.36 -2.18 -1.35 -2.17 -1.28 -2.18 -1.26 -2.21 -1.21 -2.24 -1.16 -2.3 -1.14 -2.31 -1.08 -2.38 -1.02 -2.42 -0.98 -2.48 -0.9 -2.6 -0.87 -2.66 -0.81 -2.74 -0.73 -2.87 -0.67 -2.99 -0.6 -3.1 -0.53 -3.24 -0.44 -3.37 -0.35 -3.53 -0.26 -3.71 -0.17 -3.87 -0.06 0 0zm-129.33 -27.77l129.33 0 0 27.77 -129.33 0 -15.56 -11.55 15.56 -16.22zm0 27.77l-13.31 0 -2.24 -11.55 15.56 11.55zm-60.36 -112.64l0 -27.77 3.13 0.28 6.32 1.33 6.01 1.66 5.71 2.01 5.36 2.35 5.01 2.68 4.65 2.96 4.27 3.24 3.91 3.49 3.54 3.7 3.16 3.85 2.83 4.01 2.51 4.13 2.23 4.23 1.96 4.3 1.72 4.38 1.51 4.42 1.32 4.46 1.16 4.5 1.02 4.53 0.9 4.55 0.79 4.56 0.72 4.56 0.66 4.56 0.6 4.57 0.57 4.53 0.55 4.51 0.55 4.47 0.56 4.41 0.59 4.33 0.64 4.29 0.69 4.21 0.75 4.11 -31.12 4.67 -0.84 -4.61 -0.75 -4.6 -0.69 -4.61 -0.63 -4.61 -0.58 -4.56 -0.55 -4.52 -0.55 -4.47 -0.55 -4.42 -0.58 -4.35 -0.62 -4.28 -0.65 -4.19 -0.72 -4.08 -0.78 -3.96 -0.87 -3.83 -0.96 -3.7 -1.04 -3.55 -1.15 -3.39 -1.26 -3.19 -1.37 -3.01 -1.49 -2.83 -1.59 -2.61 -1.73 -2.44 -1.85 -2.26 -1.97 -2.06 -2.12 -1.9 -2.31 -1.75 -2.51 -1.62 -2.78 -1.48 -3.06 -1.34 -3.4 -1.2 -3.79 -1.05 -4.2 -0.89 3.13 0.28zm0 -27.77l1.57 0 1.56 0.28 -3.13 -0.28zm-452.26 0.05l452.26 -0.05 0 27.77 -452.26 0.05 0 0 0 -27.77zm-32.48 57.14l-31.52 -1.31 0 0 0.22 -2.82 0.37 -2.77 0.5 -2.75 0.65 -2.71 0.78 -2.66 0.91 -2.63 1.04 -2.57 1.15 -2.5 1.27 -2.43 1.41 -2.4 1.53 -2.35 1.63 -2.23 1.75 -2.22 1.87 -2.11 1.97 -2.04 2.09 -1.95 2.14 -1.85 2.29 -1.79 2.39 -1.69 2.46 -1.58 2.54 -1.48 2.66 -1.39 2.73 -1.26 2.8 -1.14 2.9 -1.03 2.98 -0.91 3.02 -0.77 3.07 -0.64 3.17 -0.51 3.2 -0.36 3.22 -0.22 3.28 -0.07 0 27.77 -1.65 0.04 -1.63 0.11 -1.58 0.18 -1.52 0.25 -1.53 0.32 -1.49 0.38 -1.43 0.43 -1.4 0.5 -1.39 0.57 -1.35 0.63 -1.31 0.68 -1.28 0.74 -1.26 0.8 -1.19 0.84 -1.14 0.9 -1.14 0.98 -1.07 1.01 -1.02 1.06 -0.97 1.1 -0.9 1.13 -0.89 1.24 -0.81 1.22 -0.73 1.27 -0.7 1.34 -0.64 1.36 -0.56 1.39 -0.49 1.39 -0.42 1.46 -0.35 1.46 -0.28 1.5 -0.2 1.55 -0.13 1.54 0 0zm-47.54 295.2l16.02 -296.51 31.52 1.31 -16.02 296.51 -31.53 -1.17 0.01 -0.14zm-0.01 0.14l0.01 -0.14 -0.02 0.29 0.01 -0.15zm-4.12 97.41l4.12 -97.41 31.54 1.03 -4.12 97.41 -10.8 12.67 -20.74 -13.7zm31.54 1.03l-0.41 9.64 -10.4 3.03 10.8 -12.67zm-8.51 20.47l-31.17 4.36 0 0 -0.2 -1.22 -0.19 -1.26 -0.17 -1.31 -0.12 -1.19 -0.11 -1.25 -0.07 -1.3 -0.04 -1.24 -0.01 -1.25 0.03 -1.28 0.06 -1.36 0.12 -1.29 0.14 -1.21 0.19 -1.28 0.25 -1.28 0.3 -1.35 0.38 -1.33 0.43 -1.33 0.51 -1.32 0.55 -1.27 0.67 -1.35 0.78 -1.35 0.9 -1.37 0.96 -1.26 1.05 -1.22 1.19 -1.22 1.34 -1.2 1.43 -1.1 1.51 -1.02 1.66 -0.94 1.75 -0.86 1.81 -0.71 1.81 -0.6 9.94 26.37 0.24 -0.08 0.31 -0.12 0.35 -0.18 0.33 -0.18 0.26 -0.18 0.25 -0.19 0.23 -0.2 0.16 -0.17 0.09 -0.09 0.06 -0.08 0.07 -0.11 0.03 -0.04 -0.01 0.02 -0.07 0.17 -0.06 0.16 -0.06 0.2 -0.06 0.24 -0.06 0.28 -0.06 0.38 -0.06 0.43 -0.06 0.53 -0.05 0.48 -0.03 0.47 -0.01 0.54 0.01 0.64 0.02 0.65 0.04 0.62 0.06 0.69 0.08 0.77 0.07 0.66 0.12 0.73 0.13 0.78 0 0zm67.59 55.71l-12.76 25.41 0 0 -3.06 -1.22 -3.12 -1.28 -3.18 -1.38 -3.19 -1.44 -3.23 -1.51 -3.29 -1.59 -3.27 -1.66 -3.29 -1.73 -3.31 -1.79 -3.31 -1.87 -3.3 -1.96 -3.25 -2.01 -3.25 -2.11 -3.19 -2.16 -3.15 -2.23 -3.12 -2.33 -3.06 -2.4 -2.96 -2.46 -2.9 -2.55 -2.81 -2.63 -2.71 -2.7 -2.6 -2.8 -2.49 -2.87 -2.35 -2.96 -2.23 -3.07 -2.07 -3.16 -1.9 -3.25 -1.72 -3.36 -1.51 -3.43 -1.3 -3.54 -1.07 -3.63 -0.8 -3.71 31.17 -4.36 0.43 1.98 0.57 1.97 0.73 1.99 0.89 2.01 1.03 2.01 1.18 2.01 1.33 2.03 1.48 2.03 1.63 2.04 1.75 2.04 1.88 2 2.01 2.01 2.12 1.99 2.23 1.96 2.34 1.94 2.41 1.9 2.49 1.85 2.59 1.84 2.64 1.79 2.7 1.74 2.75 1.7 2.76 1.64 2.79 1.58 2.83 1.55 2.84 1.49 2.83 1.42 2.81 1.37 2.79 1.3 2.77 1.24 2.71 1.17 2.64 1.1 2.61 1.03 0 0zm78.26 24.69l31.56 0 -15.94 13.89 -4.45 -0.05 -4.33 -0.05 -4.22 -0.06 -4.13 -0.06 -4.05 -0.08 -3.93 -0.11 -3.81 -0.11 -3.78 -0.12 -3.69 -0.16 -3.57 -0.17 -3.54 -0.18 -3.46 -0.22 -3.39 -0.23 -3.32 -0.28 -3.25 -0.28 -3.25 -0.33 -3.16 -0.35 -3.14 -0.4 -3.07 -0.42 -3 -0.46 -3.01 -0.5 -2.97 -0.55 -2.9 -0.57 -2.91 -0.63 -2.89 -0.68 -2.82 -0.72 -2.81 -0.77 -2.82 -0.83 -2.74 -0.86 -2.75 -0.91 -2.76 -0.99 -2.71 -1.02 12.76 -25.41 2.12 0.8 2.1 0.75 2.14 0.71 2.17 0.69 2.15 0.63 2.22 0.6 2.24 0.57 2.26 0.54 2.3 0.5 2.38 0.48 2.4 0.44 2.46 0.41 2.56 0.39 2.59 0.37 2.66 0.32 2.75 0.31 2.79 0.28 2.92 0.26 2.99 0.24 3.07 0.21 3.17 0.2 3.24 0.17 3.39 0.17 3.43 0.14 3.55 0.12 3.7 0.11 3.79 0.09 3.87 0.08 4.02 0.06 4.13 0.06 4.26 0.05 4.38 0.05 -15.94 13.89zm31.56 0l0 14.03 -15.94 -0.14 15.94 -13.89zm115.02 -144.69l0 27.77 0 0 -6.48 0.16 -6.32 0.46 -6.14 0.75 -5.95 1.04 -5.79 1.3 -5.62 1.59 -5.47 1.84 -5.27 2.08 -5.11 2.33 -4.94 2.57 -4.76 2.8 -4.6 3.03 -4.42 3.24 -4.24 3.46 -4.06 3.67 -3.88 3.87 -3.67 4.05 -3.46 4.24 -3.28 4.43 -3.07 4.61 -2.85 4.76 -2.63 4.91 -2.4 5.07 -2.18 5.2 -1.94 5.33 -1.69 5.44 -1.44 5.56 -1.2 5.66 -0.93 5.74 -0.67 5.84 -0.42 5.91 -0.14 5.97 -31.56 0 0.16 -7.1 0.49 -7.04 0.8 -6.95 1.12 -6.89 1.44 -6.79 1.74 -6.69 2.06 -6.58 2.35 -6.45 2.64 -6.32 2.94 -6.18 3.22 -6.04 3.52 -5.87 3.8 -5.7 4.07 -5.52 4.37 -5.33 4.64 -5.12 4.91 -4.9 5.17 -4.67 5.44 -4.44 5.7 -4.18 5.95 -3.91 6.2 -3.65 6.44 -3.34 6.68 -3.05 6.92 -2.72 7.11 -2.39 7.32 -2.05 7.53 -1.71 7.72 -1.34 7.89 -0.97 8.05 -0.59 8.22 -0.19 0 0zm131.37 130.8l0 27.77 -15.78 -13.89 -0.14 -5.97 -0.41 -5.9 -0.68 -5.83 -0.95 -5.74 -1.21 -5.66 -1.46 -5.56 -1.71 -5.44 -1.95 -5.32 -2.2 -5.2 -2.42 -5.07 -2.65 -4.91 -2.87 -4.76 -3.09 -4.6 -3.3 -4.43 -3.5 -4.24 -3.71 -4.07 -3.9 -3.87 -4.08 -3.67 -4.26 -3.46 -4.45 -3.24 -4.64 -3.04 -4.8 -2.81 -4.95 -2.57 -5.13 -2.33 -5.31 -2.09 -5.48 -1.84 -5.64 -1.58 -5.8 -1.31 -5.97 -1.04 -6.14 -0.75 -6.32 -0.46 -6.48 -0.16 0 -27.77 8.22 0.19 8.06 0.59 7.89 0.97 7.73 1.34 7.53 1.7 7.34 2.06 7.12 2.39 6.92 2.71 6.7 3.05 6.46 3.34 6.22 3.64 5.96 3.91 5.72 4.18 5.48 4.44 5.19 4.67 4.93 4.9 4.65 5.11 4.4 5.33 4.11 5.52 3.83 5.71 3.54 5.87 3.26 6.04 2.95 6.18 2.68 6.32 2.37 6.46 2.06 6.58 1.75 6.69 1.45 6.79 1.14 6.89 0.81 6.97 0.5 7.05 0.16 7.1 -15.78 -13.89zm0 27.77l-15.78 0 0 -13.89 15.78 13.89zm546.57 0.01l-546.57 -0.01 0 -27.77 546.57 0.01 15.78 13.89 -15.78 13.89zm15.78 -13.89l0 13.89 -15.78 0 15.78 -13.89zm114.91 -144.7l0 27.77 0 0 -6.48 0.16 -6.32 0.46 -6.14 0.75 -5.95 1.04 -5.79 1.3 -5.6 1.58 -5.46 1.84 -5.28 2.09 -5.1 2.33 -4.94 2.57 -4.76 2.8 -4.59 3.03 -4.41 3.24 -4.23 3.46 -4.06 3.67 -3.86 3.87 -3.67 4.06 -3.47 4.25 -3.28 4.42 -3.05 4.6 -2.85 4.76 -2.63 4.92 -2.4 5.06 -2.16 5.2 -1.94 5.34 -1.69 5.44 -1.44 5.56 -1.19 5.66 -0.93 5.75 -0.67 5.84 -0.42 5.91 -0.14 5.97 -31.56 0 0.16 -7.1 0.49 -7.04 0.8 -6.95 1.12 -6.88 1.43 -6.79 1.74 -6.69 2.04 -6.58 2.35 -6.46 2.64 -6.32 2.94 -6.19 3.22 -6.03 3.5 -5.87 3.8 -5.71 4.07 -5.51 4.36 -5.34 4.64 -5.12 4.89 -4.9 5.17 -4.68 5.43 -4.44 5.71 -4.18 5.94 -3.91 6.2 -3.65 6.44 -3.34 6.67 -3.05 6.91 -2.71 7.1 -2.39 7.32 -2.06 7.53 -1.71 7.72 -1.34 7.89 -0.97 8.05 -0.59 8.22 -0.19 0 0zm130.4 130.81l-0.24 27.77 -15.66 -13.89 -0.14 -5.98 -0.41 -5.91 -0.67 -5.84 -0.92 -5.76 -1.18 -5.65 -1.44 -5.56 -1.68 -5.46 -1.92 -5.34 -2.16 -5.2 -2.38 -5.06 -2.61 -4.92 -2.83 -4.76 -3.03 -4.6 -3.26 -4.41 -3.46 -4.26 -3.64 -4.05 -3.85 -3.87 -4.04 -3.67 -4.22 -3.46 -4.4 -3.24 -4.57 -3.02 -4.75 -2.81 -4.92 -2.56 -5.08 -2.33 -5.26 -2.08 -5.45 -1.84 -5.59 -1.58 -5.78 -1.3 -5.95 -1.04 -6.12 -0.75 -6.32 -0.46 -6.48 -0.16 0 -27.77 8.22 0.19 8.05 0.59 7.89 0.97 7.7 1.34 7.52 1.71 7.32 2.06 7.09 2.39 6.89 2.72 6.67 3.05 6.42 3.35 6.19 3.64 5.94 3.92 5.67 4.18 5.42 4.44 5.14 4.68 4.88 4.9 4.62 5.12 4.33 5.33 4.05 5.52 3.79 5.71 3.48 5.87 3.2 6.03 2.92 6.19 2.62 6.32 2.33 6.46 2.03 6.56 1.72 6.69 1.42 6.8 1.11 6.87 0.8 6.95 0.48 7.04 0.16 7.09 -15.66 -13.89zm-0.24 27.77l-15.66 -0.1 0 -13.79 15.66 13.89zm60.86 -67.07l31.56 0.72 0 0 -0.19 3.53 -0.36 3.48 -0.53 3.43 -0.71 3.41 -0.9 3.37 -1.08 3.27 -1.26 3.22 -1.47 3.17 -1.65 3.07 -1.85 2.99 -2.05 2.91 -2.23 2.8 -2.45 2.71 -2.62 2.58 -2.78 2.44 -2.98 2.33 -3.14 2.18 -3.3 2.04 -3.47 1.9 -3.59 1.75 -3.76 1.62 -3.91 1.46 -4.02 1.31 -4.17 1.17 -4.28 1.02 -4.42 0.88 -4.55 0.75 -4.7 0.59 -4.8 0.46 -4.92 0.31 -5.07 0.18 -5.21 0.03 0.24 -27.77 4.21 -0.03 4.05 -0.15 3.87 -0.24 3.69 -0.35 3.5 -0.44 3.31 -0.54 3.17 -0.64 2.98 -0.71 2.81 -0.78 2.65 -0.87 2.47 -0.92 2.3 -0.99 2.19 -1.06 1.99 -1.09 1.87 -1.17 1.75 -1.2 1.6 -1.26 1.52 -1.33 1.39 -1.36 1.26 -1.41 1.19 -1.49 1.09 -1.54 1 -1.63 0.91 -1.69 0.8 -1.75 0.73 -1.86 0.64 -1.94 0.54 -1.99 0.43 -2.1 0.34 -2.18 0.23 -2.26 0.12 -2.35 0 0zm0.66 -44.67l31.39 -2.81 0.08 1.27 0.02 1.54 0.01 1.55 0.01 1.56 0 1.51 0.01 1.51 0 1.55 0 1.55 -0.01 1.51 0 1.51 -0.01 1.54 -0.01 1.53 -0.02 1.5 -0.01 1.49 -0.02 1.52 -0.02 1.48 -0.02 1.51 -0.03 1.47 -0.02 1.46 -0.03 1.49 -0.03 1.45 -0.03 1.43 -0.03 1.43 -0.03 1.45 -0.04 1.41 -0.03 1.41 -0.04 1.42 -0.04 1.39 -0.04 1.38 -0.04 1.36 -0.04 1.35 -0.04 1.34 -0.04 1.34 -31.56 -0.72 0.04 -1.3 0.04 -1.34 0.04 -1.33 0.04 -1.36 0.04 -1.38 0.04 -1.37 0.04 -1.35 0.03 -1.39 0.04 -1.41 0.03 -1.38 0.03 -1.43 0.03 -1.43 0.03 -1.43 0.03 -1.41 0.02 -1.46 0.03 -1.47 0.02 -1.43 0.02 -1.48 0.02 -1.43 0.01 -1.49 0.02 -1.5 0.01 -1.46 0.01 -1.47 0 -1.51 0.01 -1.51 0 -1.48 0 -1.48 -0.01 -1.51 0 -1.51 -0.01 -1.49 -0.01 -1.48 -0.02 -1.51 0.08 1.27zm31.39 -2.81l0.07 0.66 0.01 0.61 -0.08 -1.27zm-7.34 -63.64l7.34 63.64 -31.39 2.81 -7.34 -63.64 30.05 -7.17 1.34 4.37zm-1.34 -4.37l1.07 2.07 0.27 2.3 -1.34 -4.37z"/>
  </g>
  <path class="fil1" d="M24.84 450.44l4.11 -97.41 26 0.21c8.64,2.32 8.82,8.51 9.23,12.77l9.72 84.44 -49.07 -0.01z"/>
  <path class="fil1" d="M324.52 600.15c-27.72,0 -50.18,-22.46 -50.18,-50.17 0,-27.72 22.46,-50.17 50.18,-50.17 27.72,0 50.18,22.46 50.18,50.17 0,27.72 -22.46,50.17 -50.18,50.17z"/>
  <g>
   <path class="fil0" d="M220.5 549.97l24.04 0 0 0 0.1 4.14 0.3 4.05 0.52 4.01 0.69 3.93 0.9 3.86 1.08 3.81 1.24 3.69 1.44 3.63 1.6 3.55 1.76 3.43 1.93 3.35 2.08 3.24 2.23 3.14 2.38 3.02 2.52 2.92 2.65 2.77 2.78 2.66 2.9 2.51 3.02 2.37 3.13 2.23 3.26 2.08 3.35 1.93 3.43 1.76 3.55 1.61 3.63 1.43 3.7 1.26 3.8 1.07 3.86 0.9 3.93 0.69 4.01 0.52 4.05 0.3 4.14 0.1 0 24.04 -5.34 -0.14 -5.29 -0.4 -5.19 -0.66 -5.13 -0.91 -5.04 -1.16 -4.93 -1.4 -4.85 -1.64 -4.72 -1.86 -4.62 -2.09 -4.49 -2.3 -4.35 -2.5 -4.22 -2.71 -4.07 -2.89 -3.94 -3.09 -3.77 -3.27 -3.61 -3.43 -3.44 -3.62 -3.26 -3.77 -3.08 -3.92 -2.91 -4.08 -2.71 -4.22 -2.5 -4.37 -2.3 -4.49 -2.08 -4.61 -1.87 -4.72 -1.64 -4.86 -1.39 -4.92 -1.16 -5.04 -0.91 -5.13 -0.66 -5.19 -0.4 -5.29 -0.14 -5.34 0 0zm104.01 -104.02l0 24.04 0 0 -4.14 0.1 -4.05 0.3 -4.01 0.52 -3.93 0.69 -3.86 0.9 -3.8 1.07 -3.7 1.26 -3.63 1.43 -3.55 1.61 -3.43 1.76 -3.35 1.93 -3.26 2.08 -3.13 2.23 -3.02 2.37 -2.9 2.51 -2.78 2.66 -2.65 2.77 -2.52 2.92 -2.38 3.02 -2.23 3.14 -2.08 3.24 -1.93 3.35 -1.76 3.43 -1.6 3.55 -1.44 3.63 -1.24 3.69 -1.08 3.81 -0.9 3.86 -0.69 3.93 -0.52 4.01 -0.3 4.05 -0.1 4.14 -24.04 0 0.14 -5.34 0.4 -5.29 0.66 -5.19 0.91 -5.13 1.16 -5.04 1.39 -4.92 1.64 -4.86 1.87 -4.72 2.08 -4.61 2.3 -4.49 2.5 -4.37 2.71 -4.22 2.91 -4.08 3.08 -3.92 3.26 -3.77 3.44 -3.62 3.61 -3.43 3.77 -3.27 3.94 -3.09 4.07 -2.89 4.22 -2.71 4.35 -2.5 4.49 -2.3 4.62 -2.09 4.72 -1.86 4.85 -1.64 4.93 -1.4 5.04 -1.16 5.13 -0.91 5.19 -0.66 5.29 -0.4 5.34 -0.14 0 0zm104.02 104.02l-24.04 0 0 0 -0.1 -4.14 -0.3 -4.05 -0.52 -4.01 -0.69 -3.93 -0.9 -3.86 -1.07 -3.8 -1.26 -3.7 -1.43 -3.63 -1.61 -3.55 -1.76 -3.44 -1.93 -3.35 -2.08 -3.25 -2.23 -3.14 -2.37 -3.01 -2.52 -2.92 -2.65 -2.77 -2.77 -2.65 -2.92 -2.52 -3.01 -2.37 -3.14 -2.23 -3.25 -2.08 -3.35 -1.93 -3.44 -1.76 -3.55 -1.61 -3.63 -1.43 -3.7 -1.26 -3.8 -1.07 -3.86 -0.9 -3.93 -0.69 -4.01 -0.52 -4.05 -0.3 -4.14 -0.1 0 -24.04 5.34 0.14 5.29 0.4 5.19 0.66 5.13 0.91 5.04 1.16 4.93 1.4 4.85 1.64 4.72 1.86 4.62 2.09 4.48 2.3 4.37 2.5 4.21 2.71 4.08 2.89 3.93 3.09 3.77 3.26 3.62 3.44 3.44 3.62 3.26 3.77 3.09 3.93 2.89 4.08 2.71 4.21 2.5 4.37 2.3 4.48 2.09 4.62 1.86 4.72 1.64 4.85 1.4 4.93 1.16 5.04 0.91 5.13 0.66 5.19 0.4 5.29 0.14 5.34 0 0zm-104.02 104.02l0 -24.04 0 0 4.14 -0.1 4.05 -0.3 4.01 -0.52 3.93 -0.69 3.86 -0.9 3.8 -1.07 3.7 -1.26 3.63 -1.43 3.55 -1.61 3.44 -1.76 3.35 -1.93 3.25 -2.08 3.14 -2.23 3.01 -2.37 2.92 -2.52 2.77 -2.65 2.65 -2.77 2.52 -2.92 2.37 -3.01 2.23 -3.14 2.08 -3.25 1.93 -3.35 1.76 -3.44 1.61 -3.55 1.43 -3.63 1.26 -3.7 1.07 -3.8 0.9 -3.86 0.69 -3.93 0.52 -4.01 0.3 -4.05 0.1 -4.14 24.04 0 -0.14 5.34 -0.4 5.29 -0.66 5.19 -0.91 5.13 -1.16 5.04 -1.4 4.93 -1.64 4.85 -1.86 4.72 -2.09 4.62 -2.3 4.48 -2.5 4.37 -2.71 4.21 -2.89 4.08 -3.09 3.93 -3.26 3.77 -3.44 3.62 -3.62 3.44 -3.77 3.26 -3.93 3.09 -4.08 2.89 -4.21 2.71 -4.37 2.5 -4.48 2.3 -4.62 2.09 -4.72 1.86 -4.85 1.64 -4.93 1.4 -5.04 1.16 -5.13 0.91 -5.19 0.66 -5.29 0.4 -5.34 0.14 0 0z"/>
  </g>
  <path class="fil1" d="M1340.52 452.6l-7.34 -63.64c-16.61,0.07 -31.59,-0.06 -36.49,14.54l-0.42 49.1 44.26 -0.01z"/>
  <path class="fil1" d="M1133.15 600.15c-27.72,0 -50.18,-22.46 -50.18,-50.17 0,-27.72 22.46,-50.17 50.18,-50.17 27.72,0 50.18,22.46 50.18,50.17 0,27.72 -22.46,50.17 -50.18,50.17z"/>
  <g>
   <path class="fil0" d="M1029.12 549.97l24.04 0 0 0 0.1 4.14 0.3 4.05 0.52 4.01 0.69 3.93 0.9 3.86 1.07 3.8 1.26 3.7 1.43 3.63 1.61 3.55 1.76 3.44 1.93 3.35 2.08 3.25 2.23 3.14 2.37 3.01 2.52 2.92 2.65 2.77 2.77 2.65 2.92 2.52 3.01 2.37 3.14 2.23 3.25 2.08 3.35 1.93 3.44 1.76 3.55 1.61 3.63 1.43 3.7 1.26 3.8 1.07 3.86 0.9 3.93 0.69 4.01 0.52 4.05 0.3 4.14 0.1 0 24.04 -5.34 -0.14 -5.29 -0.4 -5.19 -0.66 -5.13 -0.91 -5.04 -1.16 -4.93 -1.4 -4.85 -1.64 -4.72 -1.86 -4.62 -2.09 -4.48 -2.3 -4.37 -2.5 -4.21 -2.71 -4.08 -2.89 -3.93 -3.09 -3.77 -3.26 -3.62 -3.44 -3.44 -3.62 -3.26 -3.77 -3.09 -3.93 -2.89 -4.08 -2.71 -4.21 -2.5 -4.37 -2.3 -4.48 -2.09 -4.62 -1.86 -4.72 -1.64 -4.85 -1.4 -4.93 -1.16 -5.04 -0.91 -5.13 -0.66 -5.19 -0.4 -5.29 -0.14 -5.34 0 0zm104.02 -104.02l0 24.04 0 0 -4.14 0.1 -4.05 0.3 -4.01 0.52 -3.93 0.69 -3.86 0.9 -3.8 1.07 -3.7 1.26 -3.63 1.43 -3.55 1.61 -3.44 1.76 -3.35 1.93 -3.25 2.08 -3.14 2.23 -3.01 2.37 -2.92 2.52 -2.77 2.65 -2.65 2.77 -2.52 2.92 -2.37 3.01 -2.23 3.14 -2.08 3.25 -1.93 3.35 -1.76 3.44 -1.61 3.55 -1.43 3.63 -1.26 3.7 -1.07 3.8 -0.9 3.86 -0.69 3.93 -0.52 4.01 -0.3 4.05 -0.1 4.14 -24.04 0 0.14 -5.34 0.4 -5.29 0.66 -5.19 0.91 -5.13 1.16 -5.04 1.4 -4.93 1.64 -4.85 1.86 -4.72 2.09 -4.62 2.3 -4.48 2.5 -4.37 2.71 -4.21 2.89 -4.08 3.09 -3.93 3.26 -3.77 3.44 -3.62 3.62 -3.44 3.77 -3.26 3.93 -3.09 4.08 -2.89 4.21 -2.71 4.37 -2.5 4.48 -2.3 4.62 -2.09 4.72 -1.86 4.85 -1.64 4.93 -1.4 5.04 -1.16 5.13 -0.91 5.19 -0.66 5.29 -0.4 5.34 -0.14 0 0zm104.02 104.02l-24.04 0 0 0 -0.1 -4.14 -0.3 -4.05 -0.52 -4.01 -0.69 -3.93 -0.9 -3.86 -1.07 -3.8 -1.26 -3.7 -1.43 -3.63 -1.61 -3.55 -1.76 -3.44 -1.93 -3.35 -2.08 -3.25 -2.23 -3.14 -2.37 -3.01 -2.52 -2.92 -2.65 -2.77 -2.77 -2.65 -2.92 -2.52 -3.01 -2.37 -3.14 -2.23 -3.25 -2.08 -3.35 -1.93 -3.44 -1.76 -3.55 -1.61 -3.63 -1.43 -3.7 -1.26 -3.8 -1.07 -3.86 -0.9 -3.93 -0.69 -4.01 -0.52 -4.05 -0.3 -4.14 -0.1 0 -24.04 5.34 0.14 5.29 0.4 5.19 0.66 5.13 0.91 5.04 1.16 4.93 1.4 4.85 1.64 4.72 1.86 4.62 2.09 4.48 2.3 4.37 2.5 4.21 2.71 4.08 2.89 3.93 3.09 3.77 3.26 3.62 3.44 3.44 3.62 3.26 3.77 3.09 3.93 2.89 4.08 2.71 4.21 2.5 4.37 2.3 4.48 2.09 4.62 1.86 4.72 1.64 4.85 1.4 4.93 1.16 5.04 0.91 5.13 0.66 5.19 0.4 5.29 0.14 5.34 0 0zm-104.02 104.02l0 -24.04 0 0 4.14 -0.1 4.05 -0.3 4.01 -0.52 3.93 -0.69 3.86 -0.9 3.8 -1.07 3.7 -1.26 3.63 -1.43 3.55 -1.61 3.44 -1.76 3.35 -1.93 3.25 -2.08 3.14 -2.23 3.01 -2.37 2.92 -2.52 2.77 -2.65 2.65 -2.77 2.52 -2.92 2.37 -3.01 2.23 -3.14 2.08 -3.25 1.93 -3.35 1.76 -3.44 1.61 -3.55 1.43 -3.63 1.26 -3.7 1.07 -3.8 0.9 -3.86 0.69 -3.93 0.52 -4.01 0.3 -4.05 0.1 -4.14 24.04 0 -0.14 5.34 -0.4 5.29 -0.66 5.19 -0.91 5.13 -1.16 5.04 -1.4 4.93 -1.64 4.85 -1.86 4.72 -2.09 4.62 -2.3 4.48 -2.5 4.37 -2.71 4.21 -2.89 4.08 -3.09 3.93 -3.26 3.77 -3.44 3.62 -3.62 3.44 -3.77 3.26 -3.93 3.09 -4.08 2.89 -4.21 2.71 -4.37 2.5 -4.48 2.3 -4.62 2.09 -4.72 1.86 -4.85 1.64 -4.93 1.4 -5.04 1.16 -5.13 0.91 -5.19 0.66 -5.29 0.4 -5.34 0.14 0 0z"/>
  </g>
 </g>
</svg>

