<?xml version="1.0" encoding="UTF-8"?>
<!DOCTYPE svg PUBLIC "-//W3C//DTD SVG 1.1//EN" "http://www.w3.org/Graphics/SVG/1.1/DTD/svg11.dtd">
<!-- Creator: CorelDRAW 2019 -->
<svg xmlns="http://www.w3.org/2000/svg" xml:space="preserve" width="6.9263mm" height="11.9664mm" version="1.1" style="shape-rendering:geometricPrecision; text-rendering:geometricPrecision; image-rendering:optimizeQuality; fill-rule:evenodd; clip-rule:evenodd"
viewBox="0 0 52.17 90.14"
 xmlns:xlink="http://www.w3.org/1999/xlink">
 <defs>
  <style type="text/css">
   <![CDATA[
    .str0 {stroke:black;stroke-width:2.66;stroke-miterlimit:22.9256}
    .fil0 {fill:none}
    .fil1 {fill:black}
   ]]>
  </style>
 </defs>
 <g id="Capa_x0020_1">
  <metadata id="CorelCorpID_0Corel-Layer"/>
  <polygon class="fil0 str0" points="6.07,12.6 6.06,68.59 46.11,68.59 46.11,12.03 6.06,12.03 "/>
  <path class="fil1" d="M26.07 74.42c2.24,0 4.05,1.81 4.05,4.05 0,2.24 -1.82,4.05 -4.05,4.05 -2.24,0 -4.05,-1.82 -4.05,-4.05 0,-2.24 1.82,-4.05 4.05,-4.05z"/>
  <path class="fil1" d="M18.12 8.29l15.94 0c1.29,0 1.94,-0.14 1.95,-1.53 0.01,-0.98 -0.48,-1.52 -1.95,-1.55l-15.94 0c-1.37,0 -1.7,0.67 -1.72,1.42 -0.02,0.78 0.32,1.65 1.72,1.65z"/>
  <path class="fil0 str0" d="M26.09 88.81l19.43 0c1.54,0.02 5.14,-1.25 5.32,-6.58l0.01 -73.13c-0.02,-4.96 -1.23,-7.55 -4.87,-7.77l-19.88 0 -19.88 0c-3.64,0.22 -4.86,2.81 -4.87,7.77l0.01 73.13c0.19,5.33 3.79,6.6 5.32,6.58l19.43 0z"/>
  <path class="fil1" d="M26.09 52.56c0.38,-0.05 0.7,-0.17 1.01,-0.51l10.35 -11.93c0.92,-0.84 1.06,-2.02 -0.55,-2.02l-4.25 -0c0.01,-3.05 0,-6.09 0,-9.14 0,-0.62 0.12,-1.65 -0.2,-2.11 -0.39,-0.57 -0.94,-0.53 -1.76,-0.53l-9.19 0c-0.82,0 -1.37,-0.04 -1.76,0.53 -0.31,0.46 -0.2,1.49 -0.2,2.11 0,3.05 -0.01,6.09 0,9.14l-4.25 0c-1.62,0 -1.47,1.18 -0.55,2.02l10.35 11.93c0.31,0.35 0.62,0.46 1.01,0.51zm0 -2.98l8.2 -9.11c-0.65,-0.01 -1.31,-0 -1.96,-0 -0.67,0 -1.25,0.06 -1.67,-0.31 -0.4,-0.35 -0.38,-0.89 -0.38,-1.57 0,-1.04 0.05,-9.5 -0.02,-9.92l-8.35 0c-0.06,0.42 -0.02,8.87 -0.02,9.92 0,0.68 0.02,1.22 -0.38,1.57 -0.42,0.37 -1,0.31 -1.67,0.31 -0.65,-0 -1.31,-0.01 -1.96,0l8.2 9.11z"/>
  <path class="fil1" d="M26.09 55.2c2.81,0 5.18,0 7.99,0 1.09,0 2.8,0.15 3.68,-0.25 1.47,-0.66 1.56,-2.27 1.63,-2.31l-0.04 -2.22c0,-0.52 -0.07,-1.14 0.18,-1.54 0.2,-0.32 0.59,-0.6 1.13,-0.55 0.49,0.05 0.82,0.36 0.97,0.73 0.14,0.37 0.08,1.16 0.08,1.6l-0 1.99c0.01,0.34 -0.11,0.88 -0.18,1.16 -0.43,1.74 -2.02,3.31 -4.03,3.65 -0.74,0.13 -1.72,0.07 -2.51,0.07l-8.89 0 -8.89 0c-0.79,0 -1.77,0.05 -2.51,-0.07 -2.01,-0.35 -3.6,-1.91 -4.03,-3.65 -0.07,-0.28 -0.19,-0.83 -0.18,-1.16l-0 -1.99c0,-0.45 -0.06,-1.24 0.08,-1.6 0.14,-0.37 0.48,-0.68 0.97,-0.73 0.54,-0.05 0.93,0.23 1.13,0.55 0.25,0.4 0.18,1.02 0.18,1.54l-0.03 2.22c0.07,0.04 0.16,1.65 1.63,2.31 0.88,0.39 2.59,0.25 3.68,0.25 2.81,0 5.18,0 7.99,0z"/>
 </g>
</svg>

