<?xml version="1.0" encoding="UTF-8"?>
<!DOCTYPE svg PUBLIC "-//W3C//DTD SVG 1.1//EN" "http://www.w3.org/Graphics/SVG/1.1/DTD/svg11.dtd">
<!-- Creator: CorelDRAW 2019 -->
<svg xmlns="http://www.w3.org/2000/svg" xml:space="preserve" width="2.7731mm" height="2.5841mm" version="1.1" style="shape-rendering:geometricPrecision; text-rendering:geometricPrecision; image-rendering:optimizeQuality; fill-rule:evenodd; clip-rule:evenodd"
viewBox="0 0 9.25 8.62"
 xmlns:xlink="http://www.w3.org/1999/xlink">
 <defs>
  <style type="text/css">
   <![CDATA[
    .fil0 {fill:#333333}
    .fil1 {fill:#333333;fill-rule:nonzero}
   ]]>
  </style>
 </defs>
 <g id="Capa_x0020_1">
  <metadata id="CorelCorpID_0Corel-Layer"/>
  <circle class="fil0" cx="4.62" cy="5.26" r="0.22"/>
  <path class="fil0" d="M4.5 4.48c0,0.22 -0.01,0.43 0.01,0.58 0.06,-0.03 0.13,-0.04 0.2,-0.01 0.02,-0.17 0.01,-0.44 0.01,-0.64 -0,-0.29 -0.02,-0.49 -0.12,-0.48 -0.1,0.01 -0.11,0.24 -0.11,0.55z"/>
  <path class="fil0" d="M4.69 5.47c0.23,0.25 0.46,0.53 0.57,0.48 0.15,-0.06 -0.17,-0.38 -0.42,-0.65 -0.02,0.08 -0.07,0.14 -0.15,0.17z"/>
  <path class="fil0" d="M4.63 3.27c1.1,0 1.98,0.89 1.98,1.98 0,1.1 -0.89,1.98 -1.98,1.98 -1.1,0 -1.98,-0.89 -1.98,-1.98 0,-1.1 0.89,-1.98 1.98,-1.98zm0 0.3c0.93,0 1.69,0.75 1.69,1.69 0,0.93 -0.75,1.69 -1.69,1.69 -0.93,0 -1.69,-0.75 -1.69,-1.69 0,-0.93 0.75,-1.69 1.69,-1.69z"/>
  <rect class="fil0" x="6.31" y="0" width="0.53" height="1.49" rx="0.25" ry="0.32"/>
  <rect class="fil0" x="2.4" y="0" width="0.53" height="1.49" rx="0.25" ry="0.32"/>
  <g>
   <path class="fil1" d="M3.58 8.33l1.04 0 0 0.29 -1.04 0 0 0 0 -0.29zm-2.4 0l2.4 0 0 0.29 -2.4 0 0 0 0 -0.29zm-1.19 -0.89l0.29 0 0 0 0 0.05 0 0.05 0.01 0.04 0.01 0.04 0.01 0.04 0.01 0.04 0.01 0.04 0.02 0.04 0.02 0.04 0.02 0.04 0.02 0.04 0.02 0.04 0.03 0.04 0.03 0.03 0.03 0.03 0.03 0.03 0.03 0.03 0.03 0.03 0.03 0.03 0.04 0.03 0.04 0.02 0.04 0.02 0.04 0.02 0.04 0.02 0.04 0.02 0.04 0.01 0.04 0.01 0.04 0.01 0.04 0.01 0.04 0.01 0.05 0 0.05 0 0 0.29 -0.06 -0 -0.06 -0 -0.06 -0.01 -0.06 -0.01 -0.06 -0.01 -0.06 -0.02 -0.06 -0.02 -0.05 -0.02 -0.05 -0.02 -0.05 -0.03 -0.05 -0.03 -0.05 -0.03 -0.05 -0.03 -0.04 -0.04 -0.04 -0.04 -0.04 -0.04 -0.04 -0.04 -0.04 -0.04 -0.03 -0.04 -0.03 -0.05 -0.03 -0.05 -0.03 -0.05 -0.03 -0.05 -0.02 -0.05 -0.02 -0.05 -0.02 -0.06 -0.02 -0.06 -0.01 -0.06 -0.01 -0.06 -0.01 -0.06 -0 -0.06 -0 -0.06 0 0zm0.29 -5.56l0 5.56 -0.29 0 0 -5.56 0 0 0.29 0zm0.88 -1.2l-0 0.29 0 0 -0.05 0 -0.04 0 -0.04 0.01 -0.04 0.01 -0.04 0.01 -0.04 0.01 -0.04 0.01 -0.04 0.02 -0.04 0.02 -0.04 0.02 -0.04 0.02 -0.04 0.02 -0.03 0.03 -0.03 0.03 -0.03 0.03 -0.03 0.03 -0.03 0.03 -0.03 0.03 -0.03 0.04 -0.03 0.04 -0.02 0.04 -0.02 0.04 -0.02 0.04 -0.02 0.04 -0.02 0.04 -0.01 0.04 -0.01 0.04 -0.01 0.04 -0.01 0.04 -0.01 0.05 -0 0.05 -0 0.05 -0.29 0 0 -0.06 0 -0.06 0.01 -0.06 0.01 -0.06 0.01 -0.06 0.02 -0.06 0.02 -0.06 0.02 -0.05 0.02 -0.05 0.03 -0.05 0.03 -0.05 0.03 -0.05 0.03 -0.05 0.03 -0.05 0.04 -0.04 0.04 -0.04 0.04 -0.04 0.04 -0.04 0.04 -0.04 0.05 -0.03 0.05 -0.03 0.05 -0.03 0.05 -0.03 0.05 -0.02 0.05 -0.02 0.05 -0.02 0.06 -0.02 0.06 -0.01 0.06 -0.01 0.06 -0.01 0.06 -0 0.06 -0 0 0zm0.9 0.31l-0.91 -0.01 0 -0.29 0.91 0.01 0.14 0.15 -0.15 0.15zm0 -0.29l0.14 0 0 0.14 -0.14 -0.15zm-0.15 0.65l0 -0.5 0.29 0 0 0.5 0 0 -0.29 0zm0.69 0.4l0 0.29 0 0 -0.04 -0 -0.04 -0 -0.03 -0 -0.03 -0.01 -0.03 -0.01 -0.03 -0.01 -0.03 -0.01 -0.03 -0.01 -0.03 -0.01 -0.03 -0.02 -0.03 -0.02 -0.03 -0.02 -0.03 -0.02 -0.03 -0.02 -0.02 -0.02 -0.02 -0.02 -0.02 -0.02 -0.02 -0.02 -0.02 -0.03 -0.02 -0.03 -0.02 -0.03 -0.02 -0.03 -0.02 -0.03 -0.01 -0.03 -0.01 -0.03 -0.01 -0.03 -0.01 -0.03 -0.01 -0.03 -0.01 -0.03 -0 -0.03 -0 -0.04 -0 -0.04 0.29 0 0 0.02 0 0.02 0 0.02 0 0.02 0 0.02 0.01 0.02 0.01 0.02 0.01 0.02 0.01 0.02 0.01 0.02 0.01 0.02 0.01 0.02 0.01 0.02 0.01 0.02 0.01 0.02 0.01 0.01 0.01 0.01 0.02 0.01 0.02 0.01 0.02 0.01 0.02 0.01 0.02 0.01 0.02 0.01 0.02 0.01 0.02 0.01 0.02 0.01 0.02 0.01 0.02 0 0.02 0 0.02 0 0.02 0 0.02 0 0 0zm0.08 0.29l-0.08 0 0 -0.29 0.08 0 0 0 0 0.29zm0.4 -0.69l0.29 0 0 0 -0 0.04 -0 0.04 -0 0.03 -0.01 0.03 -0.01 0.03 -0.01 0.03 -0.01 0.03 -0.01 0.03 -0.01 0.03 -0.02 0.03 -0.02 0.03 -0.02 0.03 -0.02 0.03 -0.02 0.03 -0.02 0.02 -0.02 0.02 -0.02 0.02 -0.02 0.02 -0.03 0.02 -0.03 0.02 -0.03 0.02 -0.03 0.02 -0.03 0.02 -0.03 0.01 -0.03 0.01 -0.03 0.01 -0.03 0.01 -0.03 0.01 -0.03 0.01 -0.03 0 -0.04 0 -0.04 0 0 -0.29 0.02 -0 0.02 -0 0.02 -0 0.02 -0 0.02 -0 0.02 -0.01 0.02 -0.01 0.02 -0.01 0.02 -0.01 0.02 -0.01 0.02 -0.01 0.02 -0.01 0.01 -0.01 0.02 -0.01 0.01 -0.01 0.01 -0.01 0.01 -0.01 0.01 -0.02 0.01 -0.02 0.01 -0.02 0.01 -0.02 0.01 -0.02 0.01 -0.02 0.01 -0.02 0.01 -0.02 0.01 -0.02 0.01 -0.02 0 -0.02 0 -0.02 0 -0.02 0 -0.02 0 -0.02 0 0zm0.29 -0.5l0 0.5 -0.29 0 0 -0.5 0.15 -0.15 0.15 0.15zm-0.29 0l0 -0.15 0.15 0 -0.15 0.15zm1.51 0.15l-1.37 0 0 -0.29 1.37 0 0 0 0 0.29zm1.37 0l-1.37 0 0 -0.29 1.37 0 0.15 0.15 -0.15 0.15zm0 -0.29l0.15 0 0 0.15 -0.15 -0.15zm-0.15 0.65l0 -0.5 0.29 0 0 0.5 0 0 -0.29 0zm0.69 0.4l0 0.29 0 0 -0.04 -0 -0.04 -0 -0.03 -0 -0.03 -0.01 -0.03 -0.01 -0.03 -0.01 -0.03 -0.01 -0.03 -0.01 -0.03 -0.01 -0.03 -0.02 -0.03 -0.02 -0.03 -0.02 -0.03 -0.02 -0.03 -0.02 -0.02 -0.02 -0.02 -0.02 -0.02 -0.02 -0.02 -0.02 -0.02 -0.03 -0.02 -0.03 -0.02 -0.03 -0.02 -0.03 -0.02 -0.03 -0.01 -0.03 -0.01 -0.03 -0.01 -0.03 -0.01 -0.03 -0.01 -0.03 -0.01 -0.03 -0 -0.03 -0 -0.04 -0 -0.04 0.29 0 0 0.02 0 0.02 0 0.02 0 0.02 0 0.02 0.01 0.02 0.01 0.02 0.01 0.02 0.01 0.02 0.01 0.02 0.01 0.02 0.01 0.02 0.01 0.02 0.01 0.02 0.01 0.02 0.01 0.01 0.01 0.01 0.01 0.01 0.02 0.01 0.01 0.01 0.02 0.01 0.02 0.01 0.02 0.01 0.02 0.01 0.02 0.01 0.02 0.01 0.02 0.01 0.02 0 0.02 0 0.02 0 0.02 0 0.02 0 0 0zm0.08 0.29l-0.08 0 0 -0.29 0.08 0 0 0 0 0.29zm0.4 -0.69l0.29 0 0 0 -0 0.04 -0 0.04 -0 0.03 -0.01 0.03 -0.01 0.03 -0.01 0.03 -0.01 0.03 -0.01 0.03 -0.01 0.03 -0.02 0.03 -0.02 0.03 -0.02 0.03 -0.02 0.03 -0.02 0.03 -0.02 0.02 -0.02 0.02 -0.02 0.02 -0.02 0.02 -0.03 0.02 -0.03 0.02 -0.03 0.02 -0.03 0.02 -0.03 0.02 -0.03 0.01 -0.03 0.01 -0.03 0.01 -0.03 0.01 -0.03 0.01 -0.03 0.01 -0.03 0 -0.04 0 -0.04 0 0 -0.29 0.02 -0 0.02 -0 0.02 -0 0.02 -0 0.02 -0 0.02 -0.01 0.02 -0.01 0.02 -0.01 0.02 -0.01 0.02 -0.01 0.02 -0.01 0.02 -0.01 0.02 -0.01 0.02 -0.01 0.02 -0.01 0.01 -0.01 0.01 -0.01 0.01 -0.02 0.01 -0.02 0.01 -0.02 0.01 -0.02 0.01 -0.02 0.01 -0.02 0.01 -0.02 0.01 -0.02 0.01 -0.02 0.01 -0.02 0 -0.02 0 -0.02 0 -0.02 0 -0.02 0 -0.02 0 0zm0.29 -0.5l0 0.5 -0.29 0 0 -0.5 0.14 -0.15 0.15 0.15zm-0.29 0l0 -0.14 0.14 -0 -0.14 0.15zm1.06 0.13l-0.91 0.01 -0 -0.29 0.91 -0.01 0 0.29zm1.17 0.91l-0.29 0 0 0 -0 -0.05 -0 -0.05 -0.01 -0.05 -0.01 -0.04 -0.01 -0.04 -0.01 -0.04 -0.01 -0.04 -0.02 -0.04 -0.02 -0.04 -0.02 -0.04 -0.02 -0.04 -0.02 -0.04 -0.03 -0.04 -0.03 -0.04 -0.03 -0.03 -0.03 -0.03 -0.03 -0.03 -0.03 -0.03 -0.03 -0.03 -0.03 -0.03 -0.04 -0.02 -0.04 -0.02 -0.04 -0.02 -0.04 -0.02 -0.04 -0.02 -0.04 -0.01 -0.04 -0.01 -0.04 -0.01 -0.04 -0.01 -0.04 -0.01 -0.04 -0 -0.05 -0 -0 -0.29 0.06 0 0.06 0 0.06 0.01 0.06 0.01 0.06 0.01 0.06 0.02 0.05 0.02 0.05 0.02 0.05 0.02 0.05 0.03 0.05 0.03 0.05 0.03 0.05 0.03 0.04 0.04 0.04 0.04 0.04 0.04 0.04 0.04 0.04 0.04 0.03 0.05 0.03 0.05 0.03 0.05 0.03 0.05 0.03 0.05 0.02 0.05 0.02 0.05 0.02 0.06 0.02 0.06 0.01 0.06 0.01 0.06 0.01 0.06 0 0.06 0 0.06 0 0zm-0.29 5.56l0 -5.56 0.29 0 0 5.56 0 0 -0.29 0zm-0.89 1.19l0 -0.29 0 0 0.05 -0 0.05 -0 0.04 -0.01 0.04 -0.01 0.04 -0.01 0.04 -0.01 0.04 -0.01 0.04 -0.02 0.04 -0.02 0.04 -0.02 0.04 -0.02 0.04 -0.02 0.04 -0.03 0.03 -0.03 0.03 -0.03 0.03 -0.03 0.03 -0.03 0.03 -0.03 0.03 -0.03 0.03 -0.04 0.02 -0.04 0.02 -0.04 0.02 -0.04 0.02 -0.04 0.02 -0.04 0.01 -0.04 0.01 -0.04 0.01 -0.04 0.01 -0.04 0.01 -0.04 0 -0.05 0 -0.05 0.29 0 -0 0.06 -0 0.06 -0.01 0.06 -0.01 0.06 -0.01 0.06 -0.02 0.06 -0.02 0.06 -0.02 0.05 -0.02 0.05 -0.03 0.05 -0.03 0.05 -0.03 0.05 -0.03 0.05 -0.03 0.04 -0.04 0.04 -0.04 0.04 -0.04 0.04 -0.04 0.04 -0.04 0.04 -0.05 0.03 -0.05 0.03 -0.05 0.03 -0.05 0.03 -0.05 0.02 -0.05 0.02 -0.06 0.02 -0.06 0.02 -0.06 0.01 -0.06 0.01 -0.06 0.01 -0.06 0 -0.06 0 0 0zm-2.4 -0.29l2.4 0 0 0.29 -2.4 0 0 0 0 -0.29zm-1.04 0l1.04 0 0 0.29 -1.04 0 0 0 0 -0.29zm3.94 -5.62l-3.94 0 0 -0.29 3.94 0 0.15 0.15 -0.15 0.15zm0 -0.29l0.15 0 0 0.15 -0.15 -0.15zm-0.15 4.76l0 -4.61 0.29 0 0 4.61 0 0 -0.29 0zm-0.64 0.91l0 -0.29 0 0 0.03 -0 0.03 -0 0.03 -0 0.03 -0.01 0.03 -0.01 0.03 -0.01 0.03 -0.01 0.03 -0.01 0.03 -0.01 0.03 -0.01 0.03 -0.02 0.03 -0.02 0.02 -0.02 0.03 -0.02 0.02 -0.02 0.02 -0.02 0.02 -0.02 0.02 -0.02 0.02 -0.02 0.02 -0.02 0.02 -0.03 0.02 -0.03 0.01 -0.03 0.01 -0.03 0.01 -0.03 0.01 -0.03 0.01 -0.03 0.01 -0.03 0.01 -0.03 0 -0.03 0 -0.03 0 -0.03 0.29 0 -0 0.05 -0 0.05 -0.01 0.05 -0.01 0.05 -0.01 0.04 -0.01 0.04 -0.02 0.04 -0.02 0.04 -0.02 0.04 -0.02 0.04 -0.02 0.04 -0.02 0.04 -0.03 0.04 -0.03 0.03 -0.03 0.03 -0.03 0.03 -0.03 0.03 -0.03 0.03 -0.03 0.03 -0.04 0.03 -0.04 0.02 -0.04 0.02 -0.04 0.02 -0.04 0.02 -0.04 0.02 -0.04 0.01 -0.04 0.01 -0.05 0.01 -0.05 0.01 -0.05 0.01 -0.05 0 -0.05 0 0 0zm-3.15 -0.29l3.15 0 0 0.29 -3.15 0 0 0 0 -0.29zm-3.15 0l3.15 0 0 0.29 -3.15 0 0 0 0 -0.29zm-0.93 -0.61l0.29 0 0 0 0 0.03 0 0.03 0 0.03 0.01 0.03 0.01 0.03 0.01 0.03 0.01 0.03 0.01 0.03 0.01 0.03 0.01 0.03 0.02 0.03 0.02 0.03 0.02 0.02 0.02 0.02 0.02 0.02 0.02 0.02 0.02 0.02 0.02 0.02 0.03 0.02 0.02 0.02 0.03 0.02 0.03 0.02 0.03 0.01 0.03 0.01 0.03 0.01 0.03 0.01 0.03 0.01 0.03 0.01 0.03 0.01 0.03 0 0.03 0 0.03 0 0 0.29 -0.05 -0 -0.05 -0 -0.05 -0.01 -0.05 -0.01 -0.05 -0.01 -0.04 -0.01 -0.04 -0.01 -0.04 -0.02 -0.04 -0.02 -0.04 -0.02 -0.04 -0.02 -0.04 -0.02 -0.04 -0.03 -0.03 -0.03 -0.03 -0.03 -0.03 -0.03 -0.03 -0.03 -0.03 -0.03 -0.03 -0.03 -0.03 -0.04 -0.02 -0.04 -0.02 -0.04 -0.02 -0.04 -0.02 -0.04 -0.02 -0.04 -0.02 -0.04 -0.01 -0.04 -0.01 -0.04 -0.01 -0.05 -0.01 -0.05 -0 -0.05 -0 -0.05 0 0zm0.29 -4.61l0 4.61 -0.29 0 0 -4.61 0.15 -0.15 0.15 0.15zm-0.29 0l0 -0.15 0.15 0 -0.15 0.15zm4.09 0.15l-3.94 0 0 -0.29 3.94 0 0 0.29z"/>
  </g>
 </g>
</svg>
