<?xml version="1.0" encoding="UTF-8"?>
<!DOCTYPE svg PUBLIC "-//W3C//DTD SVG 1.1//EN" "http://www.w3.org/Graphics/SVG/1.1/DTD/svg11.dtd">
<!-- Creator: CorelDRAW 2019 -->
<svg xmlns="http://www.w3.org/2000/svg" xml:space="preserve" width="5.4461mm" height="2.6021mm" version="1.1" style="shape-rendering:geometricPrecision; text-rendering:geometricPrecision; image-rendering:optimizeQuality; fill-rule:evenodd; clip-rule:evenodd"
viewBox="0 0 118 56.38"
 xmlns:xlink="http://www.w3.org/1999/xlink">
 <defs>
  <style type="text/css">
   <![CDATA[
    .fil1 {fill:#333333}
    .fil0 {fill:#333333;fill-rule:nonzero}
   ]]>
  </style>
 </defs>
 <g id="Capa_x0020_1">
  <metadata id="CorelCorpID_0Corel-Layer"/>
  <g>
   <path class="fil0" d="M3.1 40.95l-3.02 0.42 0 0 -0.02 -0.11 -0.02 -0.11 -0.02 -0.11 -0.01 -0.11 -0.01 -0.11 -0.01 -0.11 -0 -0.1 -0 -0.11 0 -0.13 0.01 -0.11 0.01 -0.11 0.01 -0.11 0.02 -0.13 0.02 -0.11 0.03 -0.11 0.04 -0.13 0.04 -0.11 0.05 -0.13 0.06 -0.13 0.05 -0.11 0.06 -0.11 0.08 -0.13 0.1 -0.13 0.11 -0.12 0.11 -0.11 0.12 -0.11 0.13 -0.1 0.14 -0.1 0.15 -0.08 0.15 -0.07 0.18 -0.07 0.17 -0.05 0.96 2.55 0.03 -0.01 0.05 -0.02 0.03 -0.01 0.03 -0.02 0.03 -0.02 0.03 -0.02 0.03 -0.03 0.02 -0.02 0.02 -0.03 0.02 -0.02 0.02 -0.02 -0 0.01 -0.01 0.01 0 -0 0 0 -0.01 0.02 -0 0 -0 0.03 -0.01 0.03 -0 0.02 -0 0.04 -0 0.04 -0 0.04 -0 0.03 0 0.05 0 0.07 0 0.05 0 0.05 0.01 0.05 0.01 0.06 0.01 0.06 0.01 0.07 0 0zm5.76 4.72l-1.24 2.46 0 0 -0.27 -0.11 -0.27 -0.11 -0.28 -0.12 -0.28 -0.13 -0.28 -0.13 -0.29 -0.14 -0.29 -0.15 -0.29 -0.15 -0.29 -0.16 -0.29 -0.16 -0.29 -0.17 -0.29 -0.18 -0.28 -0.18 -0.28 -0.19 -0.28 -0.2 -0.27 -0.2 -0.26 -0.21 -0.26 -0.22 -0.25 -0.22 -0.25 -0.24 -0.24 -0.24 -0.23 -0.24 -0.22 -0.26 -0.21 -0.26 -0.19 -0.27 -0.18 -0.28 -0.17 -0.29 -0.15 -0.3 -0.13 -0.31 -0.11 -0.31 -0.09 -0.32 -0.07 -0.33 3.02 -0.42 0.03 0.16 0.05 0.16 0.06 0.16 0.07 0.16 0.08 0.17 0.1 0.17 0.11 0.17 0.13 0.18 0.13 0.17 0.15 0.17 0.16 0.18 0.17 0.17 0.18 0.16 0.19 0.17 0.2 0.16 0.21 0.16 0.21 0.16 0.22 0.15 0.23 0.16 0.23 0.15 0.23 0.14 0.24 0.14 0.24 0.14 0.24 0.13 0.24 0.13 0.24 0.12 0.24 0.12 0.24 0.11 0.24 0.11 0.23 0.1 0.23 0.1 0.22 0.09 0 0zm6.55 2.27l3.06 0 -1.54 1.35 -0.39 -0 -0.37 -0 -0.37 -0 -0.36 -0.01 -0.35 -0.01 -0.35 -0.01 -0.33 -0.01 -0.32 -0.01 -0.32 -0.01 -0.31 -0.01 -0.31 -0.02 -0.3 -0.02 -0.29 -0.02 -0.29 -0.02 -0.29 -0.03 -0.28 -0.03 -0.28 -0.03 -0.27 -0.03 -0.26 -0.03 -0.27 -0.04 -0.26 -0.04 -0.26 -0.05 -0.26 -0.05 -0.25 -0.06 -0.25 -0.06 -0.25 -0.06 -0.24 -0.07 -0.25 -0.07 -0.25 -0.08 -0.24 -0.08 -0.24 -0.08 -0.24 -0.09 1.24 -2.46 0.18 0.07 0.18 0.06 0.18 0.06 0.18 0.06 0.18 0.05 0.19 0.05 0.19 0.05 0.2 0.05 0.2 0.04 0.2 0.04 0.2 0.04 0.21 0.03 0.22 0.03 0.23 0.03 0.23 0.03 0.23 0.03 0.24 0.02 0.25 0.02 0.26 0.02 0.27 0.02 0.27 0.02 0.27 0.01 0.29 0.01 0.3 0.01 0.31 0.01 0.32 0.01 0.32 0.01 0.34 0.01 0.35 0.01 0.36 0 0.37 0 0.38 0 -1.54 1.35zm3.06 0l0 1.36 -1.54 -0.01 1.54 -1.35zm9.8 -12.67l0 2.69 0 0 -0.55 0.01 -0.54 0.04 -0.52 0.06 -0.51 0.09 -0.49 0.11 -0.48 0.13 -0.46 0.16 -0.45 0.18 -0.44 0.2 -0.42 0.22 -0.41 0.24 -0.39 0.25 -0.37 0.28 -0.36 0.3 -0.34 0.31 -0.33 0.33 -0.31 0.35 -0.3 0.36 -0.28 0.38 -0.26 0.39 -0.24 0.41 -0.22 0.42 -0.2 0.43 -0.19 0.45 -0.16 0.45 -0.15 0.47 -0.12 0.47 -0.1 0.48 -0.08 0.49 -0.06 0.5 -0.03 0.5 -0.01 0.51 -3.06 0 0.01 -0.62 0.04 -0.62 0.07 -0.61 0.1 -0.6 0.12 -0.6 0.15 -0.59 0.18 -0.57 0.21 -0.57 0.23 -0.55 0.26 -0.54 0.28 -0.53 0.31 -0.52 0.33 -0.5 0.36 -0.48 0.38 -0.47 0.41 -0.45 0.43 -0.43 0.46 -0.41 0.47 -0.39 0.5 -0.37 0.52 -0.34 0.54 -0.32 0.56 -0.29 0.59 -0.27 0.61 -0.24 0.62 -0.21 0.64 -0.18 0.66 -0.15 0.68 -0.12 0.69 -0.08 0.7 -0.05 0.72 -0.02 0 0zm11.38 11.33l0 2.69 -1.53 -1.35 -0.01 -0.51 -0.03 -0.5 -0.06 -0.5 -0.08 -0.49 -0.1 -0.49 -0.12 -0.47 -0.15 -0.47 -0.17 -0.45 -0.19 -0.45 -0.21 -0.43 -0.23 -0.42 -0.24 -0.41 -0.26 -0.39 -0.28 -0.37 -0.3 -0.37 -0.31 -0.34 -0.33 -0.33 -0.35 -0.31 -0.37 -0.3 -0.38 -0.28 -0.39 -0.26 -0.41 -0.24 -0.42 -0.22 -0.44 -0.2 -0.45 -0.18 -0.47 -0.16 -0.48 -0.13 -0.49 -0.11 -0.51 -0.09 -0.52 -0.06 -0.54 -0.04 -0.55 -0.01 0 -2.69 0.72 0.02 0.7 0.05 0.7 0.08 0.68 0.12 0.66 0.15 0.64 0.18 0.62 0.21 0.61 0.24 0.59 0.27 0.57 0.29 0.54 0.32 0.53 0.34 0.5 0.37 0.48 0.39 0.46 0.41 0.43 0.43 0.41 0.45 0.39 0.47 0.36 0.48 0.34 0.5 0.31 0.52 0.28 0.53 0.26 0.54 0.23 0.55 0.21 0.57 0.18 0.58 0.15 0.58 0.13 0.59 0.1 0.6 0.07 0.61 0.04 0.62 0.01 0.62 -1.53 -1.35zm0 2.69l-1.53 0 0 -1.35 1.53 1.35zm47.34 0l-47.34 -0 0 -2.69 47.34 0 1.53 1.35 -1.53 1.35zm1.53 -1.35l0 1.35 -1.53 0 1.53 -1.35zm9.79 -12.68l0 2.69 0 0 -0.55 0.01 -0.54 0.04 -0.52 0.06 -0.51 0.09 -0.49 0.11 -0.48 0.13 -0.47 0.16 -0.45 0.18 -0.43 0.2 -0.42 0.22 -0.41 0.24 -0.39 0.26 -0.37 0.28 -0.36 0.3 -0.35 0.31 -0.33 0.33 -0.31 0.34 -0.29 0.36 -0.28 0.38 -0.26 0.39 -0.24 0.41 -0.23 0.42 -0.2 0.44 -0.19 0.44 -0.16 0.46 -0.15 0.47 -0.12 0.48 -0.1 0.49 -0.08 0.49 -0.06 0.5 -0.03 0.51 -0.01 0.51 -3.06 0 0.01 -0.62 0.04 -0.62 0.07 -0.61 0.1 -0.6 0.13 -0.59 0.15 -0.59 0.18 -0.57 0.21 -0.57 0.23 -0.55 0.26 -0.54 0.28 -0.53 0.31 -0.52 0.33 -0.5 0.36 -0.48 0.38 -0.47 0.41 -0.45 0.43 -0.43 0.46 -0.41 0.47 -0.39 0.5 -0.37 0.52 -0.34 0.54 -0.32 0.56 -0.29 0.59 -0.27 0.61 -0.24 0.62 -0.21 0.64 -0.18 0.66 -0.15 0.68 -0.12 0.69 -0.08 0.7 -0.05 0.72 -0.02 0 0zm11.3 11.33l-0.02 2.69 -1.52 -1.35 -0.01 -0.51 -0.03 -0.51 -0.06 -0.5 -0.08 -0.49 -0.1 -0.49 -0.12 -0.48 -0.14 -0.47 -0.16 -0.46 -0.18 -0.44 -0.2 -0.43 -0.23 -0.42 -0.24 -0.41 -0.26 -0.39 -0.28 -0.38 -0.3 -0.36 -0.31 -0.34 -0.33 -0.33 -0.34 -0.31 -0.36 -0.29 -0.37 -0.28 -0.39 -0.26 -0.4 -0.24 -0.42 -0.22 -0.43 -0.2 -0.44 -0.18 -0.46 -0.15 -0.48 -0.13 -0.49 -0.11 -0.5 -0.09 -0.52 -0.06 -0.54 -0.04 -0.55 -0.01 0 -2.69 0.72 0.02 0.7 0.05 0.69 0.08 0.68 0.12 0.66 0.15 0.64 0.18 0.62 0.21 0.61 0.24 0.59 0.27 0.56 0.29 0.54 0.32 0.52 0.34 0.5 0.37 0.47 0.39 0.45 0.41 0.43 0.43 0.41 0.45 0.38 0.47 0.36 0.48 0.33 0.5 0.3 0.52 0.28 0.53 0.26 0.54 0.23 0.55 0.2 0.57 0.18 0.57 0.15 0.59 0.12 0.59 0.1 0.6 0.07 0.61 0.04 0.62 0.01 0.62 -1.52 -1.35zm-0.02 2.69l-1.52 -0.01 0 -1.34 1.52 1.35zm5.11 -5.96l3.06 0.07 0 0 -0.02 0.31 -0.03 0.31 -0.05 0.3 -0.06 0.29 -0.08 0.29 -0.1 0.29 -0.11 0.29 -0.13 0.28 -0.14 0.27 -0.17 0.27 -0.18 0.26 -0.2 0.25 -0.21 0.24 -0.23 0.23 -0.25 0.22 -0.26 0.21 -0.28 0.2 -0.29 0.18 -0.31 0.17 -0.32 0.15 -0.33 0.14 -0.35 0.13 -0.36 0.12 -0.36 0.1 -0.38 0.09 -0.39 0.08 -0.4 0.07 -0.42 0.05 -0.42 0.04 -0.43 0.03 -0.44 0.02 -0.46 0 0.02 -2.69 0.36 -0 0.34 -0.01 0.33 -0.02 0.31 -0.03 0.29 -0.04 0.28 -0.05 0.27 -0.05 0.25 -0.06 0.24 -0.07 0.22 -0.07 0.2 -0.08 0.2 -0.08 0.18 -0.09 0.16 -0.09 0.16 -0.1 0.15 -0.1 0.13 -0.11 0.12 -0.11 0.11 -0.11 0.11 -0.12 0.1 -0.12 0.09 -0.13 0.08 -0.13 0.08 -0.14 0.07 -0.15 0.06 -0.15 0.05 -0.16 0.04 -0.17 0.04 -0.18 0.03 -0.18 0.02 -0.18 0.01 -0.2 0 0zm3.06 0.07l0 0 0 0 0 0zm-1.48 -2.71l0 -2.69 1.53 1.33 0 0.13 0 0.14 0 0.13 0 0.13 0 0.13 0 0.13 0 0.13 0 0.13 0 0.13 0 0.14 -0 0.13 0 0.13 -0 0.14 -0 0.12 0 0.13 -0 0.14 -0 0.13 -0 0.13 -0 0.13 -0 0.13 -0 0.12 -0 0.13 -0 0.13 -0 0.11 -0 0.12 -0 0.13 -0 0.12 -0 0.12 -0 0.12 -0 0.12 -0 0.11 -0 0.12 -3.06 -0.07 0 -0.11 0 -0.11 0 -0.12 0 -0.12 0 -0.12 0 -0.12 0 -0.11 0 -0.12 0 -0.13 0 -0.12 0 -0.11 0 -0.12 0 -0.12 0 -0.13 0 -0.13 0 -0.13 0 -0.12 0 -0.13 0 -0.14 0 -0.12 0 -0.13 0 -0.13 0 -0.12 0 -0.13 0 -0.13 0 -0.13 0 -0.13 0 -0.13 0 -0.13 0 -0.13 0 -0.12 -0 -0.13 1.53 1.33zm0 -2.69l1.51 0 0.01 1.33 -1.53 -1.33zm-3.83 0l3.83 0 0 2.69 -3.83 0 -1.53 -1.35 1.53 -1.34zm0 2.69l-1.54 0 0.01 -1.35 1.53 1.35zm1.56 -5.59l-0.03 4.25 -3.06 -0.02 0.03 -4.25 0.06 -0.37 2.99 0.39zm-3.06 -0.02l0 -0.19 0.06 -0.18 -0.06 0.37zm3.3 -0.69l2.78 -1.12 -1.38 1.9 -0.13 0 -0.13 0 -0.13 0 -0.12 0 -0.11 0 -0.11 0 -0.11 0 -0.09 0 -0.11 0.01 -0.09 0.01 -0.07 0.01 -0.08 0.01 -0.07 0.01 -0.06 0.01 -0.05 0.01 -0.05 0.01 -0.04 0.01 -0.03 0.01 -0.01 0 -0.01 0.01 -0.03 0.02 -0 0 0.01 -0.01 -0.01 0.01 -0.01 0.01 0 -0 -0.01 0.01 -0 0 -0.01 0.02 -0.02 0.03 -0.02 0.04 -0.02 0.04 -2.93 -0.76 0.07 -0.19 0.08 -0.18 0.09 -0.17 0.1 -0.17 0.12 -0.17 0.13 -0.16 0.14 -0.15 0.14 -0.13 0.15 -0.12 0.18 -0.13 0.17 -0.1 0.15 -0.08 0.18 -0.08 0.19 -0.08 0.17 -0.06 0.16 -0.05 0.17 -0.05 0.16 -0.03 0.17 -0.03 0.16 -0.03 0.15 -0.02 0.17 -0.02 0.15 -0.01 0.14 -0.01 0.15 -0.01 0.15 -0 0.14 -0.01 0.15 -0 0.14 -0 0.13 0 0.14 -0 0.14 0 -1.38 1.9zm2.78 -1.12l0.99 1.89 -2.37 0.01 1.38 -1.9zm-6.09 -0.89l1.11 -2.5 0 0 0.23 0.08 0.23 0.08 0.22 0.08 0.21 0.08 0.21 0.08 0.21 0.09 0.2 0.08 0.19 0.08 0.2 0.09 0.18 0.09 0.18 0.08 0.18 0.1 0.16 0.09 0.16 0.09 0.17 0.1 0.16 0.1 0.16 0.11 0.15 0.1 0.14 0.11 0.14 0.11 0.14 0.11 0.14 0.12 0.12 0.12 0.13 0.13 0.12 0.13 0.11 0.13 0.1 0.12 0.1 0.14 0.1 0.14 0.09 0.14 0.09 0.15 0.08 0.14 -2.78 1.12 -0.04 -0.07 -0.03 -0.06 -0.04 -0.06 -0.04 -0.06 -0.04 -0.05 -0.05 -0.07 -0.05 -0.06 -0.05 -0.05 -0.05 -0.05 -0.06 -0.06 -0.06 -0.06 -0.07 -0.05 -0.08 -0.06 -0.08 -0.06 -0.09 -0.06 -0.09 -0.06 -0.09 -0.06 -0.1 -0.06 -0.11 -0.07 -0.12 -0.07 -0.11 -0.06 -0.14 -0.07 -0.14 -0.07 -0.14 -0.06 -0.16 -0.07 -0.16 -0.07 -0.16 -0.07 -0.18 -0.07 -0.19 -0.07 -0.18 -0.07 -0.2 -0.07 -0.2 -0.07 0 0zm-20.67 -4.49l1.82 -2.16 -0.63 -0.24 0.72 0.12 0.71 0.12 0.69 0.11 0.68 0.11 0.67 0.11 0.67 0.11 0.66 0.1 0.65 0.1 0.65 0.11 0.63 0.1 0.63 0.1 0.63 0.1 0.62 0.11 0.62 0.11 0.62 0.11 0.62 0.11 0.61 0.12 0.62 0.12 0.61 0.13 0.62 0.13 0.62 0.14 0.62 0.14 0.62 0.15 0.62 0.16 0.63 0.16 0.64 0.17 0.63 0.18 0.65 0.19 0.65 0.2 0.65 0.21 0.66 0.21 0.67 0.23 -1.11 2.5 -0.64 -0.22 -0.63 -0.21 -0.63 -0.2 -0.61 -0.19 -0.61 -0.18 -0.61 -0.17 -0.6 -0.16 -0.6 -0.15 -0.59 -0.15 -0.59 -0.14 -0.59 -0.14 -0.59 -0.13 -0.59 -0.13 -0.59 -0.12 -0.59 -0.12 -0.59 -0.11 -0.6 -0.11 -0.6 -0.11 -0.6 -0.11 -0.61 -0.1 -0.61 -0.1 -0.63 -0.1 -0.63 -0.1 -0.64 -0.1 -0.65 -0.1 -0.65 -0.1 -0.67 -0.11 -0.68 -0.11 -0.69 -0.11 -0.7 -0.11 -0.71 -0.12 -0.73 -0.12 -0.63 -0.24zm0.63 0.24l-0.34 -0.06 -0.28 -0.19 0.63 0.24zm-18.28 -15.13l19.48 12.73 -1.82 2.16 -19.48 -12.73 1.71 -2.23 0.11 0.07zm-0.11 -0.07l0.05 0.02 0.07 0.04 -0.11 -0.07zm-8.66 -0.49l0 -2.69 0 0 0.43 0.01 0.42 0.02 0.41 0.03 0.39 0.04 0.39 0.05 0.37 0.06 0.36 0.07 0.35 0.08 0.33 0.09 0.32 0.1 0.32 0.11 0.3 0.11 0.29 0.11 0.28 0.12 0.27 0.13 0.27 0.13 0.24 0.13 0.24 0.13 0.24 0.14 0.22 0.13 0.21 0.13 0.21 0.13 0.2 0.13 0.2 0.12 0.2 0.13 0.18 0.12 0.18 0.11 0.18 0.11 0.17 0.11 0.16 0.1 0.17 0.1 0.16 0.09 -1.6 2.29 -0.22 -0.12 -0.21 -0.12 -0.21 -0.13 -0.2 -0.13 -0.19 -0.12 -0.2 -0.13 -0.19 -0.13 -0.18 -0.12 -0.19 -0.12 -0.19 -0.12 -0.18 -0.11 -0.19 -0.12 -0.19 -0.11 -0.18 -0.1 -0.19 -0.1 -0.2 -0.1 -0.19 -0.1 -0.2 -0.09 -0.2 -0.09 -0.21 -0.08 -0.21 -0.08 -0.21 -0.07 -0.23 -0.07 -0.23 -0.06 -0.24 -0.06 -0.25 -0.05 -0.27 -0.05 -0.27 -0.04 -0.29 -0.03 -0.3 -0.02 -0.32 -0.02 -0.33 -0 0 0zm-11.2 -2.69l11.2 0 0 2.69 -11.2 0 -1.51 -1.12 1.51 -1.57zm0 2.69l-1.29 0 -0.22 -1.12 1.51 1.12zm-5.23 -9.75l0 -2.69 0.3 0.03 0.56 0.12 0.53 0.15 0.51 0.18 0.47 0.21 0.44 0.24 0.42 0.27 0.38 0.29 0.35 0.31 0.32 0.33 0.28 0.34 0.25 0.35 0.22 0.37 0.2 0.37 0.17 0.38 0.15 0.38 0.13 0.39 0.12 0.39 0.1 0.4 0.09 0.39 0.08 0.39 0.07 0.4 0.06 0.4 0.06 0.4 0.05 0.4 0.05 0.39 0.05 0.39 0.05 0.39 0.05 0.39 0.05 0.38 0.05 0.37 0.06 0.36 0.07 0.35 -3.01 0.46 -0.07 -0.4 -0.07 -0.4 -0.06 -0.4 -0.05 -0.4 -0.05 -0.39 -0.05 -0.39 -0.05 -0.39 -0.05 -0.38 -0.05 -0.37 -0.05 -0.37 -0.06 -0.36 -0.06 -0.35 -0.07 -0.34 -0.07 -0.33 -0.08 -0.31 -0.09 -0.3 -0.1 -0.29 -0.11 -0.28 -0.11 -0.25 -0.13 -0.24 -0.13 -0.22 -0.14 -0.2 -0.15 -0.19 -0.16 -0.17 -0.18 -0.16 -0.19 -0.15 -0.21 -0.13 -0.23 -0.12 -0.26 -0.11 -0.28 -0.1 -0.31 -0.08 -0.36 -0.07 0.3 0.03zm0 -2.69l0.16 0 0.15 0.03 -0.3 -0.03zm-39.17 0l39.17 -0 0 2.69 -39.17 0 0 0 0 -2.69zm-2.65 5.1l-3.06 -0.13 0 -0 0.02 -0.25 0.03 -0.25 0.05 -0.25 0.06 -0.24 0.07 -0.24 0.08 -0.23 0.09 -0.23 0.1 -0.22 0.11 -0.22 0.13 -0.22 0.14 -0.21 0.15 -0.2 0.15 -0.19 0.17 -0.19 0.18 -0.18 0.18 -0.17 0.19 -0.16 0.2 -0.16 0.21 -0.15 0.22 -0.14 0.23 -0.13 0.24 -0.12 0.24 -0.11 0.25 -0.1 0.26 -0.09 0.26 -0.08 0.27 -0.07 0.28 -0.06 0.28 -0.04 0.28 -0.03 0.29 -0.02 0.29 -0.01 0 2.69 -0.13 0 -0.13 0.01 -0.13 0.02 -0.13 0.02 -0.12 0.03 -0.12 0.03 -0.12 0.04 -0.11 0.04 -0.11 0.05 -0.11 0.05 -0.11 0.06 -0.11 0.06 -0.1 0.07 -0.1 0.07 -0.09 0.07 -0.09 0.08 -0.09 0.09 -0.08 0.08 -0.08 0.09 -0.08 0.1 -0.07 0.1 -0.07 0.1 -0.06 0.1 -0.06 0.11 -0.05 0.11 -0.05 0.11 -0.04 0.11 -0.03 0.12 -0.03 0.12 -0.02 0.12 -0.02 0.13 -0.01 0.13 0 -0zm-4.44 25.55l1.39 -25.68 3.06 0.13 -1.39 25.68 -1.54 1.28 -1.51 -1.41zm1.51 1.41l-1.59 -0.01 0.08 -1.4 1.51 1.41zm2.25 0.02l-2.25 -0.02 0.03 -2.69 2.25 0.02 0.43 0.06 -0.46 2.63zm0.03 -2.69l0.21 0 0.21 0.06 -0.43 -0.06zm2.31 2.31l-3.04 0.27 -0 -0.03 -0 -0.04 -0 -0.01 -0.01 -0.07 -0 -0.04 -0 -0.01 0 -0 -0 -0.01 -0.01 -0.04 -0 -0.01 0 -0 0 0.02 -0.01 -0.01 0 0 0.01 0.02 0.01 0.02 0 0.01 0 0 0.03 0.05 0 0.01 0.02 0.02 0.03 0.04 0.02 0.02 0.05 0.04 0.01 0.01 0.02 0.02 0.04 0.03 -0.01 -0.01 0.04 0.02 0.03 0.02 0 0 0.01 0 0 0 0.88 -2.57 0.13 0.04 0.14 0.05 0.12 0.05 0.15 0.06 0.15 0.08 0.09 0.05 0.13 0.08 0.11 0.08 0.09 0.07 0.12 0.11 0.08 0.08 0.09 0.11 0.07 0.09 0.06 0.08 0.07 0.12 0.04 0.08 0.04 0.09 0.04 0.09 0.04 0.1 0.02 0.08 0.02 0.07 0.02 0.09 0.02 0.08 0.01 0.07 0.01 0.03 0.01 0.07 0.01 0.07 0.01 0.07 0 0.03 0 0 0.01 0.07 0 0.03 -0 -0.03zm-3.04 0.27l-0 -0.03 0 0.04 -0 -0.01zm0.84 7.31l-0.84 -7.31 3.04 -0.27 0.84 7.31 -1.52 1.48 -1.52 -1.21zm3.04 -0.27l0.17 1.48 -1.69 0 1.52 -1.48zm-5.77 -1.21l4.25 0 0 2.69 -4.25 0 -0.48 -2.62 0.48 -0.07zm-0.48 0.07l0.24 -0.07 0.24 0 -0.48 0.07zm78.38 -9.28l-12.22 -8.61 1.91 -2.1 12.22 8.61 0.12 0.09 -2.03 2.01zm1.91 -2.1l0.07 0.05 0.05 0.05 -0.12 -0.09zm-1.3 3.28l0 -2.69 0 0 0.03 0 0.04 0 -0 0 0 0 0.05 -0 0.05 -0 0.01 0 -0.03 0 0 -0 -0.03 0.01 -0.05 0.01 0.03 -0.01 -0.04 0.01 -0.11 0.04 -0.1 0.05 -0.09 0.05 -0.14 0.11 -0.11 0.1 -0.12 0.17 -0.1 0.21 -0.04 0.17 -0.01 0.17 0.02 0.17 0.03 0.1 0.04 0.1 0.03 0.06 0.02 0.02 -0 0 -0.01 -0.01 -0.01 -0.01 -0.05 -0.05 -0.05 -0.05 2.15 -1.92 0.12 0.11 0.11 0.11 0.12 0.13 0.1 0.12 0.09 0.12 0.09 0.13 0.09 0.16 0.08 0.2 0.05 0.19 0.03 0.24 -0.02 0.25 -0.06 0.23 -0.12 0.28 -0.17 0.23 -0.15 0.16 -0.2 0.15 -0.15 0.09 -0.17 0.08 -0.19 0.07 -0.13 0.03 -0.05 0.01 -0.14 0.03 -0.13 0.02 -0.09 0.01 -0.13 0.01 -0.08 0 -0.04 0 -0.04 0 -0.08 0 -0.09 0 -0.04 0 -0.03 0 0 0zm-24.25 -2.7l24.25 0.01 0 2.69 -24.25 -0.01 -0.01 -2.69 0.01 0zm-0.01 0l0 0 0.01 0 -0.01 0zm-3.1 0.35l3 -0.5 -0.04 -0.15 0.04 0.11 0.03 0.08 0.03 0.1 0.03 0.09 0.02 0.07 0.02 0.07 0.02 0.05 0.01 0.04 0.02 0.04 0 0.02 0 0.01 0 0.01 -0.02 -0.04 -0.02 -0.03 -0.02 -0.02 -0.04 -0.04 -0.08 -0.07 -0.07 -0.05 -0.05 -0.03 -0.07 -0.04 -0.08 -0.03 -0.03 -0.01 -0.03 -0.01 -0.02 -0.01 0 0 -0.01 0 0.05 0 0.05 0 0.06 0 0.09 0 0.08 0 0.1 0 0.02 2.69 -0.15 0 -0.15 -0 -0.13 -0 -0.15 -0.01 -0.15 -0.01 -0.12 -0.01 -0.17 -0.02 -0.14 -0.03 -0.16 -0.04 -0.15 -0.05 -0.15 -0.05 -0.19 -0.08 -0.16 -0.09 -0.13 -0.09 -0.15 -0.11 -0.15 -0.14 -0.1 -0.12 -0.08 -0.11 -0.08 -0.12 -0.07 -0.13 -0.04 -0.09 -0.05 -0.1 -0.04 -0.1 -0.03 -0.08 -0.03 -0.09 -0.03 -0.09 -0.02 -0.07 -0.02 -0.07 -0.02 -0.07 -0.02 -0.07 -0.03 -0.09 -0.02 -0.07 -0.04 -0.15zm0.04 0.15l-0.02 -0.07 -0.02 -0.08 0.04 0.15zm-1.96 -9.18l2.92 -0.81 0.04 0.15 0.06 0.29 0.06 0.29 0.06 0.29 0.06 0.29 0.06 0.29 0.06 0.29 0.06 0.28 0.06 0.29 0.06 0.29 0.06 0.29 0.06 0.29 0.06 0.29 0.06 0.29 0.06 0.28 0.06 0.29 0.06 0.29 0.06 0.28 0.06 0.29 0.06 0.29 0.06 0.29 0.06 0.29 0.06 0.29 0.06 0.28 0.06 0.29 0.06 0.29 0.06 0.29 0.06 0.29 0.06 0.29 0.06 0.29 0.06 0.28 0.06 0.29 0.06 0.29 -3 0.5 -0.06 -0.29 -0.06 -0.29 -0.06 -0.29 -0.06 -0.29 -0.06 -0.29 -0.06 -0.29 -0.06 -0.29 -0.06 -0.29 -0.06 -0.28 -0.06 -0.29 -0.06 -0.29 -0.06 -0.29 -0.06 -0.29 -0.06 -0.28 -0.06 -0.29 -0.06 -0.29 -0.06 -0.28 -0.06 -0.29 -0.06 -0.29 -0.06 -0.29 -0.06 -0.29 -0.06 -0.29 -0.06 -0.29 -0.06 -0.28 -0.06 -0.29 -0.06 -0.29 -0.06 -0.29 -0.06 -0.29 -0.06 -0.29 -0.06 -0.28 -0.06 -0.29 -0.06 -0.29 0.04 0.15zm2.92 -0.81l0.03 0.07 0.02 0.08 -0.04 -0.15zm-0.82 -2.02l0.03 2.69 -0.28 -0.02 0.05 0.01 0.03 0 0.09 0 0.1 -0.01 0.08 -0.01 0.08 -0.02 0.11 -0.04 0.07 -0.03 0.05 -0.03 0.12 -0.08 0.05 -0.04 0.04 -0.04 0.07 -0.08 0.03 -0.04 0.03 -0.04 0.01 -0.02 0.03 -0.06 0.01 -0.03 0 -0.02 0.01 -0.05 0 -0.01 0 -0.01 0 -0 0 -0.02 0 0 0 0.01 -0 -0.02 0 0 0 0.01 0 0 0 0.01 0 0 -2.92 0.81 -0.03 -0.11 -0.03 -0.1 -0.03 -0.1 -0.02 -0.1 -0.02 -0.1 -0.02 -0.13 -0 -0.1 -0 -0.1 0 -0.13 0.01 -0.1 0.01 -0.1 0.02 -0.1 0.03 -0.14 0.03 -0.1 0.04 -0.11 0.07 -0.14 0.06 -0.1 0.07 -0.11 0.08 -0.11 0.13 -0.14 0.11 -0.1 0.11 -0.09 0.2 -0.13 0.13 -0.07 0.15 -0.07 0.21 -0.07 0.17 -0.04 0.18 -0.03 0.2 -0.02 0.19 0 0.15 0.01 0.16 0.02 -0.28 -0.02zm0.03 2.69l-0.13 0 -0.15 -0.02 0.28 0.02zm10.29 -0.08l-10.29 0.08 -0.03 -2.69 10.29 -0.08 0.06 0 -0.04 2.69zm-0.03 -2.69l0.06 0 -0.07 -0 0.01 0zm5.97 2.4l-1.91 2.1 -0.1 -0.07 -0.16 -0.13 -0.15 -0.13 -0.14 -0.12 -0.14 -0.11 -0.13 -0.11 -0.12 -0.1 -0.11 -0.09 -0.11 -0.09 -0.1 -0.08 -0.09 -0.07 -0.1 -0.07 -0.09 -0.07 -0.07 -0.05 -0.08 -0.05 -0.07 -0.04 -0.08 -0.04 -0.08 -0.04 -0.07 -0.03 -0.07 -0.03 -0.1 -0.03 -0.1 -0.03 -0.1 -0.03 -0.11 -0.03 -0.13 -0.03 -0.14 -0.02 -0.15 -0.02 -0.16 -0.02 -0.18 -0.02 -0.2 -0.02 -0.21 -0.02 -0.22 -0.01 -0.25 -0.01 0.1 -2.69 0.29 0.01 0.29 0.02 0.27 0.02 0.25 0.02 0.25 0.02 0.25 0.03 0.24 0.04 0.23 0.04 0.22 0.05 0.21 0.05 0.22 0.06 0.2 0.06 0.2 0.07 0.21 0.08 0.2 0.09 0.17 0.08 0.17 0.09 0.17 0.1 0.16 0.1 0.16 0.11 0.14 0.1 0.14 0.1 0.15 0.11 0.14 0.11 0.13 0.1 0.13 0.11 0.13 0.11 0.13 0.11 0.13 0.11 0.14 0.12 0.14 0.12 0.15 0.12 -0.1 -0.07zm-1.91 2.1l-0.06 -0.04 -0.03 -0.03 0.1 0.07z"/>
  </g>
  <path class="fil1" d="M98.3 56.38c-4.75,0 -8.6,-3.85 -8.6,-8.61 0,-4.75 3.85,-8.6 8.6,-8.6 4.75,0 8.61,3.85 8.61,8.6 0,4.75 -3.85,8.61 -8.61,8.61zm0 -3.91c-2.59,0 -4.69,-2.1 -4.69,-4.69 0,-2.59 2.1,-4.69 4.69,-4.69 2.59,0 4.7,2.1 4.7,4.69 0,2.59 -2.1,4.69 -4.7,4.69z"/>
  <path class="fil1" d="M28.27 56.38c-4.75,0 -8.61,-3.85 -8.61,-8.61 0,-4.75 3.85,-8.61 8.61,-8.61 4.75,0 8.6,3.85 8.6,8.61 0,4.75 -3.85,8.61 -8.6,8.61zm0 -3.91c-2.59,0 -4.7,-2.1 -4.7,-4.69 0,-2.59 2.1,-4.69 4.7,-4.69 2.59,0 4.69,2.1 4.69,4.69 0,2.59 -2.1,4.69 -4.69,4.69z"/>
 </g>
</svg>
