<?xml version="1.0" encoding="UTF-8"?>
<!DOCTYPE svg PUBLIC "-//W3C//DTD SVG 1.1//EN" "http://www.w3.org/Graphics/SVG/1.1/DTD/svg11.dtd">
<!-- Creator: CorelDRAW 2019 -->
<svg xmlns="http://www.w3.org/2000/svg" xml:space="preserve" width="37.281mm" height="42.3332mm" version="1.1" style="shape-rendering:geometricPrecision; text-rendering:geometricPrecision; image-rendering:optimizeQuality; fill-rule:evenodd; clip-rule:evenodd"
viewBox="0 0 672.65 763.81"
 xmlns:xlink="http://www.w3.org/1999/xlink">
 <defs>
  <style type="text/css">
   <![CDATA[
    .fil0 {fill:white}
   ]]>
  </style>
 </defs>
 <g id="Capa_x0020_1">
  <metadata id="CorelCorpID_0Corel-Layer"/>
  <path class="fil0" d="M336.33 763.81c-80.01,0 -225.27,-150.98 -267.32,-229.79 -65.02,-121.89 -78.36,-250.31 -63.51,-386.83 7.38,-67.86 33.82,-31.18 93.54,-31.18 66.28,0 132.18,-37.1 182.13,-77.69 17.4,-14.13 43.47,-38.32 55.17,-38.32 11.7,0 37.78,24.19 55.17,38.32 49.94,40.59 115.85,77.69 182.13,77.69 59.72,0 86.16,-36.68 93.54,31.18 14.85,136.53 1.5,264.95 -63.51,386.83 -42.05,78.82 -187.31,229.79 -267.32,229.79zm0 -46.77c-70.21,0 -197.69,-132.49 -234.58,-201.65 -57.06,-106.96 -68.76,-219.65 -55.74,-339.47 6.48,-59.55 29.68,-27.36 82.08,-27.36 58.16,0 115.99,-32.56 159.82,-68.17 15.26,-12.4 38.14,-33.63 48.41,-33.63 10.27,0 33.15,21.23 48.41,33.63 43.83,35.61 101.66,68.17 159.82,68.17 52.41,0 75.61,-32.19 82.08,27.36 13.03,119.81 1.32,232.5 -55.74,339.47 -36.9,69.17 -164.38,201.65 -234.58,201.65zm-69.41 -263.94c-22.98,-18.61 -48.06,-35.64 -76.86,-49.87 -11.24,-6.92 -24.77,-0.8 -14.38,11.76 39.91,43.28 69.18,86.82 97.63,133.91 4.6,7.77 8.65,10.26 14.12,1.3 8.48,-13.88 14.5,-31.8 21.55,-46.87 45.56,-97.33 107.39,-171.68 181.16,-270.35 17.01,-16.92 12.97,-32.46 -8.52,-21.37 -82.24,69.22 -163.73,145.15 -214.69,241.48z"/>
 </g>
</svg>

