<?xml version="1.0" encoding="UTF-8"?>
<!DOCTYPE svg PUBLIC "-//W3C//DTD SVG 1.1//EN" "http://www.w3.org/Graphics/SVG/1.1/DTD/svg11.dtd">
<!-- Creator: CorelDRAW 2019 -->
<svg xmlns="http://www.w3.org/2000/svg" xml:space="preserve" width="42.3333mm" height="40.0485mm" version="1.1" style="shape-rendering:geometricPrecision; text-rendering:geometricPrecision; image-rendering:optimizeQuality; fill-rule:evenodd; clip-rule:evenodd"
viewBox="0 0 1411.22 1335.06"
 xmlns:xlink="http://www.w3.org/1999/xlink">
 <defs>
  <style type="text/css">
   <![CDATA[
    .fil1 {fill:white}
    .fil0 {fill:white;fill-rule:nonzero}
   ]]>
  </style>
 </defs>
 <g id="Capa_x0020_1">
  <metadata id="CorelCorpID_0Corel-Layer"/>
  <g>
   <path class="fil0" d="M729.51 828.26l23.03 0 0 0 -0.06 2.41 -0.18 2.38 -0.3 2.36 -0.41 2.32 -0.52 2.27 -0.64 2.24 -0.74 2.19 -0.84 2.14 -0.95 2.09 -1.03 2.02 -1.13 1.96 -1.23 1.92 -1.31 1.84 -1.39 1.77 -1.47 1.7 -1.54 1.62 -1.64 1.56 -1.7 1.47 -1.77 1.39 -1.85 1.31 -1.9 1.22 -1.96 1.12 -2.02 1.04 -2.09 0.94 -2.14 0.84 -2.18 0.74 -2.24 0.63 -2.26 0.52 -2.31 0.42 -2.35 0.3 -2.37 0.18 -2.4 0.06 0 -23.14 1.24 -0.03 1.23 -0.09 1.19 -0.15 1.18 -0.21 1.16 -0.27 1.12 -0.32 1.11 -0.38 1.08 -0.42 1.05 -0.48 1.04 -0.53 1 -0.58 0.97 -0.62 0.93 -0.66 0.9 -0.71 0.87 -0.75 0.82 -0.78 0.8 -0.84 0.75 -0.87 0.71 -0.91 0.67 -0.93 0.61 -0.95 0.57 -1 0.53 -1.04 0.47 -1.05 0.42 -1.07 0.37 -1.11 0.32 -1.11 0.26 -1.15 0.21 -1.17 0.15 -1.18 0.09 -1.22 0.03 -1.23 0 0zm-23.89 -23.83l0 -23.14 0 0 2.4 0.06 2.37 0.18 2.35 0.3 2.31 0.42 2.26 0.52 2.24 0.63 2.18 0.74 2.14 0.84 2.09 0.94 2.02 1.04 1.96 1.12 1.91 1.22 1.84 1.31 1.77 1.39 1.7 1.47 1.63 1.55 1.55 1.63 1.47 1.7 1.39 1.77 1.31 1.84 1.22 1.91 1.13 1.96 1.04 2.02 0.95 2.09 0.84 2.14 0.74 2.18 0.64 2.25 0.52 2.27 0.41 2.32 0.3 2.36 0.18 2.38 0.06 2.41 -23.03 0 -0.03 -1.23 -0.09 -1.22 -0.15 -1.18 -0.21 -1.17 -0.26 -1.16 -0.32 -1.11 -0.37 -1.1 -0.42 -1.08 -0.47 -1.04 -0.53 -1.03 -0.57 -1 -0.62 -0.96 -0.67 -0.94 -0.71 -0.9 -0.75 -0.87 -0.79 -0.83 -0.83 -0.79 -0.87 -0.76 -0.9 -0.71 -0.94 -0.67 -0.96 -0.62 -1 -0.58 -1.04 -0.53 -1.05 -0.48 -1.08 -0.42 -1.11 -0.38 -1.12 -0.32 -1.16 -0.27 -1.18 -0.21 -1.19 -0.15 -1.23 -0.09 -1.24 -0.03 0 0zm-23.88 23.83l-23.03 0 0 0 0.06 -2.41 0.18 -2.38 0.3 -2.36 0.41 -2.32 0.52 -2.27 0.64 -2.25 0.74 -2.18 0.84 -2.14 0.94 -2.08 1.04 -2.03 1.13 -1.97 1.21 -1.89 1.31 -1.85 1.4 -1.78 1.48 -1.7 1.55 -1.62 1.63 -1.55 1.7 -1.47 1.76 -1.38 1.84 -1.31 1.91 -1.23 1.96 -1.12 2.02 -1.04 2.09 -0.94 2.13 -0.84 2.18 -0.74 2.24 -0.63 2.26 -0.52 2.31 -0.42 2.35 -0.3 2.37 -0.18 2.4 -0.06 0 23.14 -1.24 0.03 -1.23 0.09 -1.19 0.15 -1.18 0.21 -1.16 0.27 -1.12 0.32 -1.1 0.37 -1.08 0.43 -1.05 0.48 -1.03 0.53 -1 0.58 -0.96 0.61 -0.93 0.67 -0.91 0.72 -0.87 0.75 -0.83 0.79 -0.8 0.84 -0.75 0.86 -0.7 0.9 -0.66 0.93 -0.63 0.98 -0.57 0.99 -0.52 1.02 -0.48 1.05 -0.42 1.08 -0.37 1.1 -0.32 1.11 -0.26 1.16 -0.21 1.17 -0.15 1.18 -0.09 1.22 -0.03 1.23 0 0zm23.88 23.83l0 23.14 0 0 -2.4 -0.06 -2.37 -0.18 -2.35 -0.3 -2.31 -0.42 -2.26 -0.52 -2.24 -0.63 -2.18 -0.74 -2.13 -0.84 -2.09 -0.94 -2.02 -1.04 -1.96 -1.12 -1.91 -1.22 -1.85 -1.31 -1.76 -1.39 -1.7 -1.47 -1.63 -1.56 -1.54 -1.62 -1.48 -1.7 -1.39 -1.77 -1.31 -1.84 -1.22 -1.91 -1.13 -1.97 -1.03 -2.03 -0.94 -2.08 -0.84 -2.14 -0.74 -2.19 -0.64 -2.24 -0.52 -2.27 -0.41 -2.32 -0.3 -2.36 -0.18 -2.38 -0.06 -2.41 23.03 0 0.03 1.23 0.09 1.22 0.15 1.18 0.21 1.17 0.26 1.15 0.32 1.11 0.37 1.11 0.42 1.07 0.48 1.06 0.53 1.03 0.57 1 0.62 0.97 0.66 0.93 0.71 0.9 0.75 0.86 0.8 0.84 0.82 0.78 0.87 0.75 0.91 0.72 0.93 0.66 0.97 0.62 1 0.58 1.03 0.53 1.05 0.48 1.08 0.43 1.1 0.37 1.12 0.32 1.16 0.27 1.18 0.21 1.19 0.15 1.23 0.09 1.24 0.03 0 0z"/>
  </g>
  <path class="fil1" d="M686.46 705.82c0.01,34.32 -1.55,67.28 2.13,90.8l31.5 -7.52c2.88,-27.23 1.63,-63.34 1.61,-94.59 -0.07,-45.57 -3.09,-77.67 -18.51,-75.65 -15.8,2.06 -16.74,38.58 -16.72,86.97z"/>
  <path class="fil1" d="M714.65 859.66c36.62,40.05 74.13,85.24 91.63,78.03 23.33,-9.59 -24.04,-56.46 -62.78,-98.79l-28.85 20.76z"/>
  <path class="fil1" d="M705.62 515.53c172.71,0 312.73,140.01 312.73,312.72 0,172.71 -140.01,312.73 -312.73,312.73 -172.71,0 -312.72,-140.01 -312.72,-312.73 0,-172.71 140.01,-312.72 312.72,-312.72zm0 47.08c146.71,0 265.64,118.93 265.64,265.64 0,146.71 -118.93,265.64 -265.64,265.64 -146.71,0 -265.64,-118.93 -265.64,-265.64 0,-146.71 118.93,-265.64 265.64,-265.64z"/>
  <rect class="fil1" x="971.42" y="-0" width="84.06" height="235.38" rx="39.05" ry="49.7"/>
  <rect class="fil1" x="355.74" y="-0" width="84.06" height="235.38" rx="39.05" ry="49.7"/>
  <g>
   <path class="fil1" d="M705.61 1335.06l-163.92 0 -377.78 0c-90.16,0 -163.91,-73.76 -163.91,-163.91l0 -876.4c0,-90.15 72.02,-167.56 162.16,-166.15l143.14 2.24 -0 78.68c-0,47.25 38.66,85.91 85.91,85.91l13.13 0c47.24,0 85.9,-38.66 85.9,-85.91l0 -78.68 215.36 0 215.37 0 0 78.68c0,47.25 38.66,85.91 85.9,85.91l13.13 0c47.24,0 85.91,-38.66 85.9,-85.91l-0 -78.68 143.14 -2.24c90.14,-1.41 162.16,76 162.16,166.15l0 876.4c0,90.16 -73.76,163.91 -163.91,163.91l-377.78 0 -163.92 0zm0.01 -931.41l620.93 0 0 726.74c0,66.21 -55.61,119.99 -124.08,119.99l-496.85 0 -496.85 0c-68.47,0 -124.09,-53.78 -124.09,-119.99l0 -726.74 620.93 0 0.01 0z"/>
  </g>
 </g>
</svg>

