<?xml version="1.0" encoding="UTF-8"?>
<!DOCTYPE svg PUBLIC "-//W3C//DTD SVG 1.1//EN" "http://www.w3.org/Graphics/SVG/1.1/DTD/svg11.dtd">
<!-- Creator: CorelDRAW 2019 -->
<svg xmlns="http://www.w3.org/2000/svg" xml:space="preserve" width="31.138mm" height="42.3333mm" version="1.1" style="shape-rendering:geometricPrecision; text-rendering:geometricPrecision; image-rendering:optimizeQuality; fill-rule:evenodd; clip-rule:evenodd"
viewBox="0 0 701.65 953.92"
 xmlns:xlink="http://www.w3.org/1999/xlink">
 <defs>
  <style type="text/css">
   <![CDATA[
    .fil0 {fill:white}
   ]]>
  </style>
 </defs>
 <g id="Capa_x0020_1">
  <metadata id="CorelCorpID_0Corel-Layer"/>
  <path class="fil0" d="M0.13 952.96l701.52 0.96c-6.67,-93.65 -19.76,-189.72 -29.62,-283.62 -9.75,-92.9 -11.24,-99.32 -81.31,-127.24 -25.54,-10.18 -50.01,-19.37 -76.73,-28.62 -101.92,-35.31 -71.68,-24.42 -117.38,-8.35 -13.99,4.92 -29.04,7.78 -45.42,8.04 -46.54,0.74 -62.95,-17.39 -81.24,-22.72 -13.67,-3.98 -136.23,43.56 -156.8,51.6 -26.16,10.24 -52.61,20.73 -65.58,39.63 -13.54,19.73 -13.97,60.29 -16.65,87.31 -3.63,36.59 -33.08,269.14 -30.8,283.02zm386.49 -398.96l-72.3 -0.18c1.79,5.76 8.94,15.13 13.06,21.62 5.78,9.08 8.34,15.43 22.18,15.33 17.23,-0.12 16.31,-3.32 23.46,-14.13 3.2,-4.85 12.65,-18.42 13.59,-22.64zm-35.44 354.85c3.05,-1.72 9.25,-7.87 12.02,-10.59l33.37 -35.76c8.1,-8.79 4.04,-14.37 0.33,-36.1l-20.46 -119.4c-3.55,-20.71 -8.29,-61.1 -14.31,-78.27 -29.55,-6.58 -24.57,0.4 -34.91,60.63 -4.94,28.74 -9.7,56.08 -14.44,84.58 -16.72,100.45 -22.04,72.7 12.31,110.1 6,6.53 18.22,21.27 26.09,24.82zm145.44 -267.03c-58.74,13.29 -42.75,116.96 16.07,104.33 29.53,-6.34 37.91,-34.19 36.48,-61.04 -1.27,-23.87 -25.79,-49.35 -52.55,-43.29z"/>
  <path class="fil0" d="M496.55 270.48c-0.06,-14.35 0.31,-31.83 -3.76,-44.03 -16.95,0.41 -28.7,21.17 -143.19,22.66 -102.31,1.33 -125.65,-23.1 -142.91,-22.57 -22.8,84.84 30.08,220.73 120.24,244.09 79.01,20.46 135.08,-60.22 156.51,-118.1 10.92,-29.49 13.25,-47.82 13.11,-82.04z"/>
  <path class="fil0" d="M143.43 99.26l47.03 71.02c8.79,-2.96 26.22,-17.88 69.9,-31.3 28.97,-8.9 57.1,-11.24 89.25,-11.64 45.15,-0.56 85.78,7.35 125.82,25.14l35.04 17.88c6.02,-13.77 41.77,-58.04 47.92,-72.68l-83.26 -68.99c-6,-3.82 -111.57,-27.92 -123.91,-28.69 -8.25,-0.52 -117.05,24.62 -124.47,28.2 -6.57,3.17 -79.74,63.78 -83.31,71.05zm197.73 -63.72c-38.62,13.23 -19.9,67.9 17.29,58.33 37.27,-9.59 22.64,-72.01 -17.29,-58.33z"/>
  <path class="fil0" d="M215.58 192.48c8.58,2.74 17.43,7.95 28.07,11.23 10.13,3.13 20.7,5.55 31.67,7.5 23.97,4.27 49.65,6.15 74.29,6.06 30.29,-0.11 117.39,-7.55 133.34,-25.33 -6.53,-8.39 -44.94,-18.68 -59.37,-22.19 -42.07,-10.23 -106.31,-11.01 -147.75,0.3 -9.28,2.53 -52.17,14.37 -60.25,22.43z"/>
 </g>
</svg>

