<?xml version="1.0" encoding="UTF-8"?>
<!DOCTYPE svg PUBLIC "-//W3C//DTD SVG 1.1//EN" "http://www.w3.org/Graphics/SVG/1.1/DTD/svg11.dtd">
<!-- Creator: CorelDRAW 2019 -->
<svg xmlns="http://www.w3.org/2000/svg" xml:space="preserve" width="67.7321mm" height="32.4882mm" version="1.1" style="shape-rendering:geometricPrecision; text-rendering:geometricPrecision; image-rendering:optimizeQuality; fill-rule:evenodd; clip-rule:evenodd"
viewBox="0 0 1935.08 928.18"
 xmlns:xlink="http://www.w3.org/1999/xlink">
 <defs>
  <style type="text/css">
   <![CDATA[
    .fil0 {fill:white}
   ]]>
  </style>
 </defs>
 <g id="Capa_x0020_1">
  <metadata id="CorelCorpID_0Corel-Layer"/>
  <path class="fil0" d="M13.23 637.68c-12.53,3.65 -15,18.25 -12.17,33.84 8.05,44.57 68.58,79.81 112.17,96.75 37.62,14.63 77.01,16.9 146.68,17.51 0,-102.27 75.24,-191.05 191.07,-191.05 115.83,0 191.89,88.79 191.89,191.05l798.35 0.01c0,-102.28 75.07,-191.07 190.9,-191.07 115.83,0 190.31,88.79 190.31,191.07 74.61,0.49 110.39,-30.97 111.76,-77.16 0.61,-20.5 1.07,-44.13 0.85,-67.83l-64.65 0.01 0.61 -71.71c7.17,-21.35 29.03,-21.15 53.29,-21.25 -9.89,-19.05 -30.1,-31.85 -69.82,-45.51 -118.84,-40.9 -211.55,-50.85 -342.64,-72.74l-328.46 -214.75c-34.21,-18.53 -62.96,-50.32 -132.58,-50.32l-188.91 0c-13.11,-67.49 -3.18,-149.4 -88.17,-164.53l-660.61 0.07c-38.71,0 -68.62,28.03 -70.46,62.21l-23.4 433.1 37.98 0.31c12.63,3.39 12.88,12.43 13.48,18.65l14.2 123.34 -71.68 0zm1123.85 -341.07l206.05 145.3c17.2,14.91 0.21,14.91 -5.74,14.91l-409.06 -0.09c-23.54,0.09 -21.21,-4.44 -27.02,-21.04 -11.04,-51.61 -22.08,-103.24 -33.12,-154.85 -3.41,-9.63 0.07,-19.93 10.95,-18.25l173.52 -1.37c49.52,1.41 56.28,11.98 84.42,35.39z"/>
  <path class="fil0" d="M1632.11 928.18c-80.16,0 -145.13,-64.98 -145.13,-145.14 0,-80.16 64.98,-145.13 145.13,-145.13 80.16,0 145.13,64.98 145.13,145.13 0,80.16 -64.98,145.14 -145.13,145.14zm0 -65.98c-43.73,0 -79.17,-35.42 -79.17,-79.16 0,-43.73 35.44,-79.17 79.17,-79.17 43.73,0 79.16,35.44 79.16,79.17 0,43.73 -35.43,79.16 -79.16,79.16z"/>
  <path class="fil0" d="M450.97 928.17c-80.16,0 -145.13,-64.98 -145.13,-145.13 0,-80.16 64.98,-145.13 145.13,-145.13 80.16,0 145.13,64.98 145.13,145.13 0,80.16 -64.98,145.13 -145.13,145.13zm0 -65.98c-43.73,0 -79.16,-35.42 -79.16,-79.15 0,-43.72 35.43,-79.16 79.16,-79.16 43.73,0 79.16,35.44 79.16,79.16 0,43.73 -35.44,79.15 -79.16,79.15z"/>
 </g>
</svg>

