<?xml version="1.0" encoding="UTF-8"?>
<!DOCTYPE svg PUBLIC "-//W3C//DTD SVG 1.1//EN" "http://www.w3.org/Graphics/SVG/1.1/DTD/svg11.dtd">
<!-- Creator: CorelDRAW 2019 -->
<svg xmlns="http://www.w3.org/2000/svg" xml:space="preserve" width="2.6098mm" height="2.9632mm" version="1.1" style="shape-rendering:geometricPrecision; text-rendering:geometricPrecision; image-rendering:optimizeQuality; fill-rule:evenodd; clip-rule:evenodd"
viewBox="0 0 8.18 9.28"
 xmlns:xlink="http://www.w3.org/1999/xlink">
 <defs>
  <style type="text/css">
   <![CDATA[
    .fil0 {fill:#333333}
   ]]>
  </style>
 </defs>
 <g id="Capa_x0020_1">
  <metadata id="CorelCorpID_0Corel-Layer"/>
  <path class="fil0" d="M4.09 9.28c-0.97,0 -2.74,-1.83 -3.25,-2.79 -0.79,-1.48 -0.95,-3.04 -0.77,-4.7 0.09,-0.82 0.41,-0.38 1.14,-0.38 0.81,0 1.61,-0.45 2.21,-0.94 0.21,-0.17 0.53,-0.47 0.67,-0.47 0.14,0 0.46,0.29 0.67,0.47 0.61,0.49 1.41,0.94 2.21,0.94 0.73,0 1.05,-0.45 1.14,0.38 0.18,1.66 0.02,3.22 -0.77,4.7 -0.51,0.96 -2.28,2.79 -3.25,2.79zm0 -0.57c-0.85,0 -2.4,-1.61 -2.85,-2.45 -0.69,-1.3 -0.84,-2.67 -0.68,-4.13 0.08,-0.72 0.36,-0.33 1,-0.33 0.71,0 1.41,-0.4 1.94,-0.83 0.19,-0.15 0.46,-0.41 0.59,-0.41 0.12,0 0.4,0.26 0.59,0.41 0.53,0.43 1.24,0.83 1.94,0.83 0.64,0 0.92,-0.39 1,0.33 0.16,1.46 0.02,2.83 -0.68,4.13 -0.45,0.84 -2,2.45 -2.85,2.45zm-0.84 -3.21c-0.28,-0.23 -0.58,-0.43 -0.93,-0.61 -0.14,-0.08 -0.3,-0.01 -0.17,0.14 0.48,0.53 0.84,1.06 1.19,1.63 0.06,0.09 0.1,0.12 0.17,0.02 0.1,-0.17 0.18,-0.39 0.26,-0.57 0.55,-1.18 1.31,-2.09 2.2,-3.29 0.21,-0.21 0.16,-0.39 -0.1,-0.26 -1,0.84 -1.99,1.76 -2.61,2.93z"/>
 </g>
</svg>
